<svg version="1.1" width="57.21" height="58.57" viewBox="0 0 57.21 58.57" xmlns="http://www.w3.org/2000/svg" xmlns:xlink="http://www.w3.org/1999/xlink" overflow="visible"><defs></defs><g><g><path d=" M 4.18 0 L 53.02 0 C 55.32 0 57.2 1.88 57.2 4.18 L 57.2 54.38 C 57.2 56.68 55.32 58.56 53.02 58.56 L 4.18 58.56 C 1.88 58.56 0 56.68 0 54.38 L 0 4.18 C 0 1.88 1.88 0 4.18 0 Z" fill-rule="evenodd" clip-rule="evenodd" opacity="0.1"/><path d=" M 4.09 1.44 L 51.83 1.44 C 54.08 1.44 55.92 3.28 55.92 5.53 L 55.92 53.27 C 55.92 55.52 54.08 57.36 51.83 57.36 L 4.09 57.36 C 1.84 57.35 0 55.51 0 53.26 L 0 5.53 C 0 3.28 1.84 1.44 4.09 1.44 Z" fill="#BEC3C7" fill-rule="evenodd" clip-rule="evenodd"/><path d=" M 4.09 0 L 51.83 0 C 54.08 0 55.92 1.84 55.92 4.09 L 55.92 51.83 C 55.92 54.08 54.08 55.92 51.83 55.92 L 4.09 55.92 C 1.84 55.92 0 54.08 0 51.83 L 0 4.09 C 0 1.84 1.84 0 4.09 0 Z" fill="#ECF0F1" fill-rule="evenodd" clip-rule="evenodd"/><path d=" M 4.09 0 L 51.83 0 C 54.08 0 55.92 1.84 55.92 4.09 L 55.92 27.96 L 0 27.96 L 0 4.09 C 0 1.84 1.84 0 4.09 0 Z" fill="#FFFFFF" fill-rule="evenodd" clip-rule="evenodd"/><path d=" M 8.13 3.25 L 48.54 3.25 C 50.44 3.25 52 4.81 52 6.71 L 52 48.87 C 52 50.77 50.44 52.33 48.54 52.33 L 8.13 52.33 C 6.23 52.33 4.67 50.77 4.67 48.87 L 4.67 6.72 C 4.67 4.81 6.23 3.25 8.13 3.25 Z" fill-rule="evenodd" clip-rule="evenodd" opacity="0.2"/><path d=" M 8.08 4.89 L 47.88 4.89 C 49.76 4.89 51.29 6.42 51.29 8.3 L 51.29 48.1 C 51.29 49.97 49.76 51.51 47.88 51.51 L 8.08 51.51 C 6.21 51.51 4.67 49.98 4.67 48.1 L 4.67 8.3 C 4.67 6.42 6.21 4.89 8.08 4.89 Z" fill="#17A086" fill-rule="evenodd" clip-rule="evenodd"/><path d=" M 8.08 3.25 L 47.88 3.25 C 49.76 3.25 51.29 4.78 51.29 6.66 L 51.29 46.45 C 51.29 48.33 49.76 49.86 47.88 49.86 L 8.08 49.86 C 6.21 49.86 4.67 48.33 4.67 46.45 L 4.67 6.66 C 4.67 4.79 6.21 3.25 8.08 3.25 Z" fill="#1DD9B0" fill-rule="evenodd" clip-rule="evenodd"/><path d=" M 27.98 3.25 L 47.88 3.25 C 49.76 3.25 51.29 4.78 51.29 6.66 L 51.29 46.46 C 51.29 48.33 49.76 49.87 47.88 49.87 L 27.98 49.87 L 27.98 3.25 Z" fill="#19BD9B" fill-rule="evenodd" clip-rule="evenodd"/><g><path d=" M 46.87 42.96 C 48.34 42.96 49.53 44.15 49.53 45.62 C 49.53 47.09 48.34 48.28 46.87 48.28 C 45.4 48.28 44.21 47.09 44.21 45.62 C 44.21 44.15 45.4 42.96 46.87 42.96 Z" fill="#69EBCC" fill-rule="evenodd" clip-rule="evenodd"/><path d=" M 46.87 42.79 C 48.34 42.79 49.53 43.98 49.53 45.45 C 49.53 46.92 48.34 48.11 46.87 48.11 C 45.4 48.11 44.21 46.92 44.21 45.45 C 44.21 43.98 45.4 42.79 46.87 42.79 Z" fill="#17A086" fill-rule="evenodd" clip-rule="evenodd"/><circle cx="46.87" cy="45.71" r="1.84" fill="#19BD9B" fill-rule="evenodd" clip-rule="evenodd"/></g><path d=" M 51.29 45.85 L 51.29 46.46 C 51.29 48.33 49.76 49.87 47.88 49.87 L 8.08 49.87 C 6.21 49.87 4.67 48.34 4.67 46.46 L 4.67 45.85 C 4.67 47.72 6.2 49.26 8.08 49.26 L 47.88 49.26 C 49.75 49.26 51.29 47.72 51.29 45.85 Z" fill="#69EBCC" fill-rule="evenodd" clip-rule="evenodd"/><path d=" M 55.92 51.47 L 55.92 51.82 C 55.92 54.07 54.08 55.91 51.83 55.91 L 4.09 55.91 C 1.84 55.92 0 54.08 0 51.83 L 0 51.48 C 0 53.73 1.84 55.57 4.09 55.57 L 51.83 55.57 C 54.08 55.56 55.92 53.72 55.92 51.47 Z" fill="#FFFFFF" fill-rule="evenodd" clip-rule="evenodd"/><g><path d=" M 9.41 5.1 C 10.88 5.1 12.07 6.29 12.07 7.76 C 12.07 9.23 10.88 10.42 9.41 10.42 C 7.94 10.42 6.75 9.23 6.75 7.76 C 6.75 6.29 7.94 5.1 9.41 5.1 Z" fill="#69EBCC" fill-rule="evenodd" clip-rule="evenodd"/><circle cx="9.41" cy="7.58" r="2.66" fill="#17A086" fill-rule="evenodd" clip-rule="evenodd"/><circle cx="9.41" cy="7.85" r="1.84" fill="#19BD9B" fill-rule="evenodd" clip-rule="evenodd"/></g><g><path d=" M 46.87 5.1 C 48.34 5.1 49.53 6.29 49.53 7.76 C 49.53 9.23 48.34 10.42 46.87 10.42 C 45.4 10.42 44.21 9.23 44.21 7.76 C 44.21 6.29 45.4 5.1 46.87 5.1 Z" fill="#69EBCC" fill-rule="evenodd" clip-rule="evenodd"/><path d=" M 46.87 4.92 C 48.34 4.92 49.53 6.11 49.53 7.58 C 49.53 9.05 48.34 10.24 46.87 10.24 C 45.4 10.24 44.21 9.05 44.21 7.58 C 44.21 6.11 45.4 4.92 46.87 4.92 Z" fill="#17A086" fill-rule="evenodd" clip-rule="evenodd"/><circle cx="46.87" cy="7.85" r="1.84" fill="#19BD9B" fill-rule="evenodd" clip-rule="evenodd"/></g><g><path d=" M 9.41 42.96 C 10.88 42.96 12.07 44.15 12.07 45.62 C 12.07 47.09 10.88 48.28 9.41 48.28 C 7.94 48.28 6.75 47.09 6.75 45.62 C 6.75 44.15 7.94 42.96 9.41 42.96 Z" fill="#69EBCC" fill-rule="evenodd" clip-rule="evenodd"/><path d=" M 9.41 42.79 C 10.88 42.79 12.07 43.98 12.07 45.45 C 12.07 46.92 10.88 48.11 9.41 48.11 C 7.94 48.11 6.75 46.92 6.75 45.45 C 6.75 43.98 7.94 42.79 9.41 42.79 Z" fill="#17A086" fill-rule="evenodd" clip-rule="evenodd"/><circle cx="9.41" cy="45.71" r="1.84" fill="#19BD9B" fill-rule="evenodd" clip-rule="evenodd"/></g></g><path d=" M 51.29 30.32 L 51.29 46.45 C 51.29 48.31 49.74 49.86 47.88 49.86 L 33.95 49.86 L 25.04 39.04 L 27.97 32.52 L 27.97 30.93 L 18.93 20.39 L 26.07 15.87 L 38.38 14.85 L 51.29 30.32 Z" fill-rule="evenodd" clip-rule="evenodd" opacity="0.1"/><g><path d=" M 32.33 26.99 C 30.65 28.18 32.42 30.85 27.72 30.95 C 24.03 31.03 23.85 26.36 24.8 24.07 C 25.76 21.78 28.3 21.65 29.22 21.06 C 30.14 20.47 30.18 19.92 30 19.42 C 29.82 18.92 27.17 17.49 24.19 20.47 C 21.78 22.88 16.44 20.74 18.2 16.06 C 21.02 8.55 39.54 8.85 39.35 19.75 C 39.26 24.89 34.01 25.81 32.33 26.99 L 32.33 26.99 Z M 27.82 33.21 C 29.99 33.21 31.75 34.97 31.75 37.14 C 31.75 39.31 29.99 41.07 27.82 41.07 C 25.65 41.07 23.89 39.31 23.89 37.14 C 23.9 34.97 25.66 33.21 27.82 33.21 Z" fill="#BEC3C7" fill-rule="evenodd" clip-rule="evenodd"/><path d=" M 32.33 26.13 C 30.65 27.32 32.42 29.99 27.72 30.09 C 24.03 30.17 23.85 25.5 24.8 23.21 C 25.76 20.92 28.3 20.79 29.22 20.2 C 30.14 19.61 30.18 19.06 30 18.56 C 29.82 18.06 27.17 16.63 24.19 19.61 C 21.78 22.02 16.44 19.88 18.2 15.2 C 21.02 7.69 39.54 7.99 39.35 18.89 C 39.26 24.03 34.01 24.95 32.33 26.13 L 32.33 26.13 Z M 27.82 32.35 C 29.99 32.35 31.75 34.11 31.75 36.28 C 31.75 38.45 29.99 40.21 27.82 40.21 C 25.65 40.21 23.89 38.45 23.89 36.28 C 23.9 34.11 25.66 32.35 27.82 32.35 Z" fill="#FFFFFF" fill-rule="evenodd" clip-rule="evenodd"/><path d=" M 32.33 26.13 C 30.66 27.31 32.39 29.95 27.83 30.09 L 27.83 20.76 C 28.4 20.56 28.91 20.41 29.22 20.21 C 30.14 19.62 30.18 19.07 30 18.57 C 29.9 18.3 29.06 17.74 27.83 17.79 L 27.83 10.07 C 33.5 9.92 39.47 12.68 39.36 18.89 C 39.26 24.03 34.01 24.95 32.33 26.13 L 32.33 26.13 Z M 27.83 32.35 L 27.83 40.2 C 30 40.2 31.76 38.44 31.76 36.27 C 31.75 34.11 29.99 32.35 27.83 32.35 Z" fill="#E6E6E6" fill-rule="evenodd" clip-rule="evenodd"/><path d=" M 32.33 26.13 C 30.82 27.2 32.09 29.46 28.96 29.99 L 28.96 29.7 C 32.1 29.18 30.82 26.91 32.33 25.85 C 34.01 24.66 39.27 23.75 39.36 18.61 L 39.36 18.6 C 39.36 18.7 39.36 18.8 39.36 18.91 C 39.26 24.03 34.01 24.95 32.33 26.13 L 32.33 26.13 Z M 28.95 40.04 L 28.95 39.75 C 30.52 39.28 31.68 37.85 31.74 36.13 L 31.74 36.28 C 31.75 38.05 30.57 39.55 28.95 40.04 L 28.95 40.04 Z M 28.95 17.92 C 29.55 18.09 29.93 18.39 29.99 18.57 C 30.02 18.66 30.05 18.76 30.06 18.86 C 30.09 18.66 30.05 18.46 29.99 18.28 C 29.93 18.1 29.55 17.8 28.95 17.63 L 28.95 17.92 Z M 28.95 29.99 C 28.62 30.04 28.25 30.08 27.82 30.09 L 27.82 29.8 C 28.25 29.79 28.62 29.75 28.95 29.7 L 28.95 29.99 L 28.95 29.99 Z M 28.95 17.62 L 28.95 17.91 C 28.63 17.82 28.25 17.76 27.82 17.78 L 27.82 17.49 C 28.25 17.47 28.63 17.53 28.95 17.62 L 28.95 17.62 Z M 28.95 39.75 L 28.95 40.04 C 28.59 40.15 28.21 40.2 27.82 40.2 L 27.82 39.91 C 28.22 39.91 28.6 39.85 28.95 39.75 Z" fill="#FFFFFF" fill-rule="evenodd" clip-rule="evenodd"/></g></g></svg>