<svg version="1.1" width="57.21" height="58.57" viewBox="0 0 57.21 58.57" xmlns="http://www.w3.org/2000/svg" xmlns:xlink="http://www.w3.org/1999/xlink" overflow="visible"><defs></defs><g><g><path d=" M 4.18 0 L 53.02 0 C 55.32 0 57.2 1.88 57.2 4.18 L 57.2 54.38 C 57.2 56.68 55.32 58.56 53.02 58.56 L 4.18 58.56 C 1.88 58.56 0 56.68 0 54.38 L 0 4.18 C 0 1.88 1.88 0 4.18 0 Z" fill-rule="evenodd" clip-rule="evenodd" opacity="0.1"/><path d=" M 4.09 1.44 L 51.83 1.44 C 54.08 1.44 55.92 3.28 55.92 5.53 L 55.92 53.27 C 55.92 55.52 54.08 57.36 51.83 57.36 L 4.09 57.36 C 1.84 57.35 0 55.51 0 53.26 L 0 5.53 C 0 3.28 1.84 1.44 4.09 1.44 Z" fill="#BEC3C7" fill-rule="evenodd" clip-rule="evenodd"/><path d=" M 4.09 0 L 51.83 0 C 54.08 0 55.92 1.84 55.92 4.09 L 55.92 51.83 C 55.92 54.08 54.08 55.92 51.83 55.92 L 4.09 55.92 C 1.84 55.92 0 54.08 0 51.83 L 0 4.09 C 0 1.84 1.84 0 4.09 0 Z" fill="#ECF0F1" fill-rule="evenodd" clip-rule="evenodd"/><path d=" M 4.09 0 L 51.83 0 C 54.08 0 55.92 1.84 55.92 4.09 L 55.92 27.96 L 0 27.96 L 0 4.09 C 0 1.84 1.84 0 4.09 0 Z" fill="#FFFFFF" fill-rule="evenodd" clip-rule="evenodd"/><path d=" M 8.13 3.25 L 48.54 3.25 C 50.44 3.25 52 4.81 52 6.71 L 52 48.87 C 52 50.77 50.44 52.33 48.54 52.33 L 8.13 52.33 C 6.23 52.33 4.67 50.77 4.67 48.87 L 4.67 6.72 C 4.67 4.81 6.23 3.25 8.13 3.25 Z" fill-rule="evenodd" clip-rule="evenodd" opacity="0.2"/><path d=" M 8.08 4.89 L 47.88 4.89 C 49.76 4.89 51.29 6.42 51.29 8.3 L 51.29 48.09 C 51.29 49.97 49.76 51.5 47.88 51.5 L 8.08 51.5 C 6.21 51.5 4.67 49.97 4.67 48.09 L 4.67 8.3 C 4.67 6.42 6.21 4.89 8.08 4.89 Z" fill="#17A086" fill-rule="evenodd" clip-rule="evenodd"/><path d=" M 8.08 3.25 L 47.88 3.25 C 49.76 3.25 51.29 4.78 51.29 6.66 L 51.29 46.46 C 51.29 48.34 49.76 49.87 47.88 49.87 L 8.08 49.87 C 6.21 49.87 4.67 48.34 4.67 46.46 L 4.67 6.66 C 4.67 4.79 6.21 3.25 8.08 3.25 Z" fill="#1DD9B0" fill-rule="evenodd" clip-rule="evenodd"/><path d=" M 27.98 3.25 L 47.88 3.25 C 49.76 3.25 51.29 4.78 51.29 6.66 L 51.29 46.46 C 51.29 48.34 49.76 49.87 47.88 49.87 L 27.98 49.87 L 27.98 3.25 Z" fill="#19BD9B" fill-rule="evenodd" clip-rule="evenodd"/><g><path d=" M 46.87 42.96 C 48.34 42.96 49.53 44.15 49.53 45.62 C 49.53 47.09 48.34 48.28 46.87 48.28 C 45.4 48.28 44.21 47.09 44.21 45.62 C 44.21 44.15 45.4 42.96 46.87 42.96 Z" fill="#69EBCC" fill-rule="evenodd" clip-rule="evenodd"/><path d=" M 46.87 42.79 C 48.34 42.79 49.53 43.98 49.53 45.45 C 49.53 46.92 48.34 48.11 46.87 48.11 C 45.4 48.11 44.21 46.92 44.21 45.45 C 44.21 43.98 45.4 42.79 46.87 42.79 Z" fill="#17A086" fill-rule="evenodd" clip-rule="evenodd"/><circle cx="46.87" cy="45.71" r="1.84" fill="#19BD9B" fill-rule="evenodd" clip-rule="evenodd"/></g><path d=" M 51.29 45.85 L 51.29 46.46 C 51.29 48.34 49.76 49.87 47.88 49.87 L 8.08 49.87 C 6.21 49.87 4.67 48.34 4.67 46.46 L 4.67 45.85 C 4.67 47.73 6.2 49.26 8.08 49.26 L 47.88 49.26 C 49.75 49.26 51.29 47.73 51.29 45.85 Z" fill="#69EBCC" fill-rule="evenodd" clip-rule="evenodd"/><path d=" M 55.92 51.47 L 55.92 51.82 C 55.92 54.07 54.08 55.91 51.83 55.91 L 4.09 55.91 C 1.84 55.92 0 54.08 0 51.83 L 0 51.48 C 0 53.73 1.84 55.57 4.09 55.57 L 51.83 55.57 C 54.08 55.56 55.92 53.72 55.92 51.47 Z" fill="#FFFFFF" fill-rule="evenodd" clip-rule="evenodd"/><g><path d=" M 9.41 5.1 C 10.88 5.1 12.07 6.29 12.07 7.76 C 12.07 9.23 10.88 10.42 9.41 10.42 C 7.94 10.42 6.75 9.23 6.75 7.76 C 6.75 6.29 7.94 5.1 9.41 5.1 Z" fill="#69EBCC" fill-rule="evenodd" clip-rule="evenodd"/><path d=" M 9.41 4.92 C 10.88 4.92 12.07 6.11 12.07 7.58 C 12.07 9.05 10.88 10.24 9.41 10.24 C 7.94 10.24 6.75 9.05 6.75 7.58 C 6.75 6.11 7.94 4.92 9.41 4.92 Z" fill="#17A086" fill-rule="evenodd" clip-rule="evenodd"/><circle cx="9.41" cy="7.85" r="1.84" fill="#19BD9B" fill-rule="evenodd" clip-rule="evenodd"/></g><g><path d=" M 46.87 5.1 C 48.34 5.1 49.53 6.29 49.53 7.76 C 49.53 9.23 48.34 10.42 46.87 10.42 C 45.4 10.42 44.21 9.23 44.21 7.76 C 44.21 6.29 45.4 5.1 46.87 5.1 Z" fill="#69EBCC" fill-rule="evenodd" clip-rule="evenodd"/><path d=" M 46.87 4.92 C 48.34 4.92 49.53 6.11 49.53 7.58 C 49.53 9.05 48.34 10.24 46.87 10.24 C 45.4 10.24 44.21 9.05 44.21 7.58 C 44.21 6.11 45.4 4.92 46.87 4.92 Z" fill="#17A086" fill-rule="evenodd" clip-rule="evenodd"/><circle cx="46.87" cy="7.85" r="1.84" fill="#19BD9B" fill-rule="evenodd" clip-rule="evenodd"/></g><g><path d=" M 9.41 42.96 C 10.88 42.96 12.07 44.15 12.07 45.62 C 12.07 47.09 10.88 48.28 9.41 48.28 C 7.94 48.28 6.75 47.09 6.75 45.62 C 6.75 44.15 7.94 42.96 9.41 42.96 Z" fill="#69EBCC" fill-rule="evenodd" clip-rule="evenodd"/><path d=" M 9.41 42.79 C 10.88 42.79 12.07 43.98 12.07 45.45 C 12.07 46.92 10.88 48.11 9.41 48.11 C 7.94 48.11 6.75 46.92 6.75 45.45 C 6.75 43.98 7.94 42.79 9.41 42.79 Z" fill="#17A086" fill-rule="evenodd" clip-rule="evenodd"/><circle cx="9.41" cy="45.71" r="1.84" fill="#19BD9B" fill-rule="evenodd" clip-rule="evenodd"/></g></g><path d=" M 51.29 35.11 L 51.29 46.46 C 51.29 48.33 49.75 49.87 47.88 49.87 L 28.92 49.87 L 14.33 30.25 L 42.68 25.79 L 51.29 35.11 Z" fill-rule="evenodd" clip-rule="evenodd" opacity="0.1"/><g><path d=" M 25.86 40.65 C 24.46 41.4 23.26 41.63 23.24 38.6 L 23.24 31.3 L 18.13 31.3 L 16.36 31.3 C 14.97 31.3 13.82 30.16 13.82 28.76 L 13.82 27 L 13.82 27 L 13.82 25.23 C 13.82 23.83 14.96 22.69 16.36 22.69 L 18.13 22.69 L 23.24 22.69 L 23.24 14.83 C 23.24 12.93 23.96 12.48 25.24 13.16 L 41.99 25.82 C 42.82 26.75 42.7 27.64 41.93 28.5 L 25.86 40.65 Z" fill="#BEC3C7" fill-rule="evenodd" clip-rule="evenodd"/><path d=" M 25.86 39.39 C 24.46 40.14 23.26 40.37 23.24 37.34 L 23.24 30.04 L 18.13 30.04 L 16.36 30.04 C 14.97 30.04 13.82 28.9 13.82 27.5 L 13.82 25.74 L 13.82 25.74 L 13.82 23.97 C 13.82 22.57 14.96 21.43 16.36 21.43 L 18.13 21.43 L 23.24 21.43 L 23.24 13.57 C 23.24 11.67 23.96 11.22 25.24 11.9 L 41.99 24.56 C 42.82 25.49 42.7 26.38 41.93 27.24 L 25.86 39.39 Z" fill="#E6E6E6" fill-rule="evenodd" clip-rule="evenodd"/><path d=" M 13.83 25.67 L 13.83 23.97 C 13.83 22.57 14.97 21.43 16.37 21.43 L 18.14 21.43 L 23.25 21.43 L 23.25 13.57 C 23.24 11.67 23.97 11.22 25.25 11.9 L 42 24.56 C 42.34 24.94 42.52 25.31 42.56 25.67 L 13.83 25.67 Z" fill="#FFFFFF" fill-rule="evenodd" clip-rule="evenodd"/><path d=" M 25.86 39.39 C 24.46 40.14 23.26 40.37 23.24 37.34 L 23.24 36.75 C 23.26 39.78 24.47 39.56 25.86 38.8 L 41.93 26.65 C 42.25 26.29 42.46 25.93 42.53 25.56 C 42.64 26.13 42.42 26.69 41.93 27.24 L 25.86 39.39 L 25.86 39.39 Z M 23.23 30.04 L 23.23 29.45 L 18.12 29.45 L 16.35 29.45 C 14.96 29.45 13.81 28.31 13.81 26.91 L 13.81 27.5 C 13.81 28.9 14.95 30.04 16.35 30.04 L 18.12 30.04 L 23.23 30.04 Z" fill="#FFFFFF" fill-rule="evenodd" clip-rule="evenodd"/></g></g></svg>