<svg version="1.1" width="30.52" height="31.24" viewBox="0 0 30.52 31.24" xmlns="http://www.w3.org/2000/svg" xmlns:xlink="http://www.w3.org/1999/xlink" overflow="visible"><defs></defs><g><path d=" M 2.23 0 L 28.28 0 C 29.51 0 30.51 1 30.51 2.23 L 30.51 29.01 C 30.51 30.24 29.51 31.24 28.28 31.24 L 2.23 31.24 C 1 31.24 0 30.24 0 29.01 L 0 2.23 C 0 1 1 0 2.23 0 Z" fill-rule="evenodd" clip-rule="evenodd" opacity="0.1"/><path d=" M 2.18 0.77 L 27.64 0.77 C 28.84 0.77 29.82 1.75 29.82 2.95 L 29.82 28.41 C 29.82 29.61 28.84 30.59 27.64 30.59 L 2.18 30.59 C 0.98 30.59 0 29.61 0 28.41 L 0 2.95 C 0 1.75 0.98 0.77 2.18 0.77 Z" fill="#BEC3C7" fill-rule="evenodd" clip-rule="evenodd"/><path d=" M 2.18 0 L 27.64 0 C 28.84 0 29.82 0.98 29.82 2.18 L 29.82 27.64 C 29.82 28.84 28.84 29.82 27.64 29.82 L 2.18 29.82 C 0.98 29.82 0 28.84 0 27.64 L 0 2.18 C 0 0.98 0.98 0 2.18 0 Z" fill="#ECF0F1" fill-rule="evenodd" clip-rule="evenodd"/><path d=" M 2.18 0 L 27.64 0 C 28.84 0 29.82 0.98 29.82 2.18 L 29.82 14.91 L 0 14.91 L 0 2.18 C 0 0.98 0.98 0 2.18 0 Z" fill="#FFFFFF" fill-rule="evenodd" clip-rule="evenodd"/><path d=" M 4.34 1.74 L 25.9 1.74 C 26.92 1.74 27.75 2.57 27.75 3.59 L 27.75 26.08 C 27.75 27.1 26.92 27.93 25.9 27.93 L 4.34 27.93 C 3.32 27.93 2.49 27.1 2.49 26.08 L 2.49 3.58 C 2.49 2.57 3.32 1.74 4.34 1.74 Z" fill-rule="evenodd" clip-rule="evenodd" opacity="0.2"/><path d=" M 4.31 2.61 L 25.54 2.61 C 26.54 2.61 27.36 3.43 27.36 4.43 L 27.36 25.66 C 27.36 26.66 26.54 27.48 25.54 27.48 L 4.31 27.48 C 3.31 27.48 2.49 26.66 2.49 25.66 L 2.49 4.43 C 2.49 3.43 3.31 2.61 4.31 2.61 Z" fill="#17A086" fill-rule="evenodd" clip-rule="evenodd"/><path d=" M 4.31 1.74 L 25.54 1.74 C 26.54 1.74 27.36 2.56 27.36 3.56 L 27.36 24.79 C 27.36 25.79 26.54 26.61 25.54 26.61 L 4.31 26.61 C 3.31 26.61 2.49 25.79 2.49 24.79 L 2.49 3.55 C 2.49 2.55 3.31 1.74 4.31 1.74 Z" fill="#1DD9B0" fill-rule="evenodd" clip-rule="evenodd"/><path d=" M 14.92 1.74 L 25.53 1.74 C 26.53 1.74 27.35 2.56 27.35 3.56 L 27.35 24.79 C 27.35 25.79 26.53 26.61 25.53 26.61 L 14.92 26.61 L 14.92 1.74 Z" fill="#19BD9B" fill-rule="evenodd" clip-rule="evenodd"/><g><path d=" M 25 22.92 C 25.78 22.92 26.42 23.56 26.42 24.34 C 26.42 25.12 25.78 25.76 25 25.76 C 24.22 25.76 23.58 25.12 23.58 24.34 C 23.58 23.55 24.22 22.92 25 22.92 Z" fill="#69EBCC" fill-rule="evenodd" clip-rule="evenodd"/><path d=" M 25 22.82 C 25.78 22.82 26.42 23.46 26.42 24.24 C 26.42 25.02 25.78 25.66 25 25.66 C 24.22 25.66 23.58 25.02 23.58 24.24 C 23.58 23.46 24.22 22.82 25 22.82 Z" fill="#17A086" fill-rule="evenodd" clip-rule="evenodd"/><circle cx="25" cy="24.38" r="0.98" fill="#19BD9B" fill-rule="evenodd" clip-rule="evenodd"/></g><path d=" M 27.36 24.46 L 27.36 24.79 C 27.36 25.79 26.54 26.61 25.54 26.61 L 4.31 26.61 C 3.31 26.61 2.49 25.79 2.49 24.79 L 2.49 24.46 C 2.49 25.46 3.31 26.28 4.31 26.28 L 25.54 26.28 C 26.54 26.28 27.36 25.46 27.36 24.46 Z" fill="#69EBCC" fill-rule="evenodd" clip-rule="evenodd"/><path d=" M 29.83 27.46 L 29.83 27.65 C 29.83 28.85 28.85 29.83 27.65 29.83 L 2.18 29.83 C 0.98 29.83 0 28.85 0 27.65 L 0 27.46 C 0 28.66 0.98 29.64 2.18 29.64 L 27.64 29.64 C 28.85 29.64 29.83 28.66 29.83 27.46 Z" fill="#FFFFFF" fill-rule="evenodd" clip-rule="evenodd"/><g><path d=" M 5.02 2.72 C 5.8 2.72 6.44 3.36 6.44 4.14 C 6.44 4.92 5.8 5.56 5.02 5.56 C 4.24 5.56 3.6 4.92 3.6 4.14 C 3.6 3.36 4.23 2.72 5.02 2.72 Z" fill="#69EBCC" fill-rule="evenodd" clip-rule="evenodd"/><path d=" M 5.02 2.63 C 5.8 2.63 6.44 3.27 6.44 4.05 C 6.44 4.83 5.8 5.47 5.02 5.47 C 4.24 5.47 3.6 4.83 3.6 4.05 C 3.6 3.26 4.23 2.63 5.02 2.63 Z" fill="#17A086" fill-rule="evenodd" clip-rule="evenodd"/><path d=" M 5.02 3.2 C 5.56 3.2 6 3.64 6 4.19 C 6 4.73 5.56 5.17 5.02 5.17 C 4.48 5.17 4.04 4.73 4.04 4.19 C 4.03 3.64 4.48 3.2 5.02 3.2 Z" fill="#19BD9B" fill-rule="evenodd" clip-rule="evenodd"/></g><g><path d=" M 25 2.72 C 25.78 2.72 26.42 3.36 26.42 4.14 C 26.42 4.92 25.78 5.56 25 5.56 C 24.22 5.56 23.58 4.92 23.58 4.14 C 23.58 3.36 24.22 2.72 25 2.72 Z" fill="#69EBCC" fill-rule="evenodd" clip-rule="evenodd"/><path d=" M 25 2.63 C 25.78 2.63 26.42 3.27 26.42 4.05 C 26.42 4.83 25.78 5.47 25 5.47 C 24.22 5.47 23.58 4.83 23.58 4.05 C 23.58 3.26 24.22 2.63 25 2.63 Z" fill="#17A086" fill-rule="evenodd" clip-rule="evenodd"/><path d=" M 25 3.2 C 25.54 3.2 25.98 3.64 25.98 4.18 C 25.98 4.72 25.54 5.16 25 5.16 C 24.46 5.16 24.02 4.72 24.02 4.18 C 24.02 3.64 24.46 3.2 25 3.2 Z" fill="#19BD9B" fill-rule="evenodd" clip-rule="evenodd"/></g><g><path d=" M 5.02 22.92 C 5.8 22.92 6.44 23.56 6.44 24.34 C 6.44 25.12 5.8 25.76 5.02 25.76 C 4.24 25.76 3.6 25.12 3.6 24.34 C 3.6 23.55 4.23 22.92 5.02 22.92 Z" fill="#69EBCC" fill-rule="evenodd" clip-rule="evenodd"/><path d=" M 5.02 22.82 C 5.8 22.82 6.44 23.46 6.44 24.24 C 6.44 25.02 5.8 25.66 5.02 25.66 C 4.24 25.66 3.6 25.02 3.6 24.24 C 3.6 23.46 4.23 22.82 5.02 22.82 Z" fill="#17A086" fill-rule="evenodd" clip-rule="evenodd"/><circle cx="5.02" cy="24.38" r="0.98" fill="#19BD9B" fill-rule="evenodd" clip-rule="evenodd"/></g></g></svg>