<svg version="1.1" width="57.21" height="58.57" viewBox="0 0 57.21 58.57" xmlns="http://www.w3.org/2000/svg" xmlns:xlink="http://www.w3.org/1999/xlink" overflow="visible"><defs></defs><g><g><path d=" M 4.18 0 L 53.02 0 C 55.32 0 57.2 1.88 57.2 4.18 L 57.2 54.38 C 57.2 56.68 55.32 58.56 53.02 58.56 L 4.18 58.56 C 1.88 58.56 0 56.68 0 54.38 L 0 4.18 C 0 1.88 1.88 0 4.18 0 Z" fill-rule="evenodd" clip-rule="evenodd" opacity="0.1"/><path d=" M 4.09 1.44 L 51.83 1.44 C 54.08 1.44 55.92 3.28 55.92 5.53 L 55.92 53.27 C 55.92 55.52 54.08 57.36 51.83 57.36 L 4.09 57.36 C 1.84 57.35 0 55.51 0 53.26 L 0 5.53 C 0 3.28 1.84 1.44 4.09 1.44 Z" fill="#BEC3C7" fill-rule="evenodd" clip-rule="evenodd"/><path d=" M 4.09 0 L 51.83 0 C 54.08 0 55.92 1.84 55.92 4.09 L 55.92 51.83 C 55.92 54.08 54.08 55.92 51.83 55.92 L 4.09 55.92 C 1.84 55.92 0 54.08 0 51.83 L 0 4.09 C 0 1.84 1.84 0 4.09 0 Z" fill="#ECF0F1" fill-rule="evenodd" clip-rule="evenodd"/><path d=" M 4.09 0 L 51.83 0 C 54.08 0 55.92 1.84 55.92 4.09 L 55.92 27.96 L 0 27.96 L 0 4.09 C 0 1.84 1.84 0 4.09 0 Z" fill="#FFFFFF" fill-rule="evenodd" clip-rule="evenodd"/><path d=" M 8.13 3.25 L 48.54 3.25 C 50.44 3.25 52 4.81 52 6.71 L 52 48.87 C 52 50.77 50.44 52.33 48.54 52.33 L 8.13 52.33 C 6.23 52.33 4.67 50.77 4.67 48.87 L 4.67 6.72 C 4.67 4.81 6.23 3.25 8.13 3.25 Z" fill-rule="evenodd" clip-rule="evenodd" opacity="0.2"/><path d=" M 8.08 4.89 L 47.88 4.89 C 49.76 4.89 51.29 6.42 51.29 8.3 L 51.29 48.09 C 51.29 49.97 49.76 51.5 47.88 51.5 L 8.08 51.5 C 6.21 51.5 4.67 49.97 4.67 48.09 L 4.67 8.3 C 4.67 6.42 6.21 4.89 8.08 4.89 Z" fill="#17A086" fill-rule="evenodd" clip-rule="evenodd"/><path d=" M 8.08 3.25 L 47.88 3.25 C 49.76 3.25 51.29 4.78 51.29 6.66 L 51.29 46.46 C 51.29 48.34 49.76 49.87 47.88 49.87 L 8.08 49.87 C 6.21 49.87 4.67 48.34 4.67 46.46 L 4.67 6.66 C 4.67 4.79 6.21 3.25 8.08 3.25 Z" fill="#1DD9B0" fill-rule="evenodd" clip-rule="evenodd"/><path d=" M 27.98 3.25 L 47.88 3.25 C 49.76 3.25 51.29 4.78 51.29 6.66 L 51.29 46.46 C 51.29 48.33 49.76 49.87 47.88 49.87 L 27.98 49.87 L 27.98 3.25 Z" fill="#19BD9B" fill-rule="evenodd" clip-rule="evenodd"/><g><path d=" M 46.87 42.96 C 48.34 42.96 49.53 44.15 49.53 45.62 C 49.53 47.09 48.34 48.28 46.87 48.28 C 45.4 48.28 44.21 47.09 44.21 45.62 C 44.21 44.15 45.4 42.96 46.87 42.96 Z" fill="#69EBCC" fill-rule="evenodd" clip-rule="evenodd"/><path d=" M 46.87 42.79 C 48.34 42.79 49.53 43.98 49.53 45.45 C 49.53 46.92 48.34 48.11 46.87 48.11 C 45.4 48.11 44.21 46.92 44.21 45.45 C 44.21 43.98 45.4 42.79 46.87 42.79 Z" fill="#17A086" fill-rule="evenodd" clip-rule="evenodd"/><circle cx="46.87" cy="45.71" r="1.84" fill="#19BD9B" fill-rule="evenodd" clip-rule="evenodd"/></g><path d=" M 51.28 45.85 L 51.28 46.46 C 51.28 48.33 49.75 49.87 47.87 49.87 L 8.08 49.87 C 6.2 49.87 4.67 48.34 4.67 46.46 L 4.67 45.85 C 4.67 47.73 6.2 49.26 8.08 49.26 L 47.88 49.26 C 49.75 49.26 51.28 47.73 51.28 45.85 Z" fill="#69EBCC" fill-rule="evenodd" clip-rule="evenodd"/><path d=" M 55.92 51.47 L 55.92 51.82 C 55.92 54.07 54.08 55.91 51.83 55.91 L 4.09 55.91 C 1.84 55.92 0 54.08 0 51.83 L 0 51.48 C 0 53.73 1.84 55.57 4.09 55.57 L 51.83 55.57 C 54.08 55.56 55.92 53.72 55.92 51.47 Z" fill="#FFFFFF" fill-rule="evenodd" clip-rule="evenodd"/><g><path d=" M 9.41 5.1 C 10.88 5.1 12.07 6.29 12.07 7.76 C 12.07 9.23 10.88 10.42 9.41 10.42 C 7.94 10.42 6.75 9.23 6.75 7.76 C 6.75 6.29 7.94 5.1 9.41 5.1 Z" fill="#69EBCC" fill-rule="evenodd" clip-rule="evenodd"/><path d=" M 9.41 4.92 C 10.88 4.92 12.07 6.11 12.07 7.58 C 12.07 9.05 10.88 10.24 9.41 10.24 C 7.94 10.24 6.75 9.05 6.75 7.58 C 6.75 6.11 7.94 4.92 9.41 4.92 Z" fill="#17A086" fill-rule="evenodd" clip-rule="evenodd"/><path d=" M 9.41 6 C 10.43 6 11.25 6.83 11.25 7.84 C 11.25 8.86 10.43 9.68 9.41 9.68 C 8.39 9.68 7.57 8.85 7.57 7.84 C 7.56 6.83 8.39 6 9.41 6 Z" fill="#19BD9B" fill-rule="evenodd" clip-rule="evenodd"/></g><g><path d=" M 46.87 5.1 C 48.34 5.1 49.53 6.29 49.53 7.76 C 49.53 9.23 48.34 10.42 46.87 10.42 C 45.4 10.42 44.21 9.23 44.21 7.76 C 44.21 6.29 45.4 5.1 46.87 5.1 Z" fill="#69EBCC" fill-rule="evenodd" clip-rule="evenodd"/><path d=" M 46.87 4.92 C 48.34 4.92 49.53 6.11 49.53 7.58 C 49.53 9.05 48.34 10.24 46.87 10.24 C 45.4 10.24 44.21 9.05 44.21 7.58 C 44.21 6.11 45.4 4.92 46.87 4.92 Z" fill="#17A086" fill-rule="evenodd" clip-rule="evenodd"/><circle cx="46.87" cy="7.85" r="1.84" fill="#19BD9B" fill-rule="evenodd" clip-rule="evenodd"/></g><g><path d=" M 9.41 42.96 C 10.88 42.96 12.07 44.15 12.07 45.62 C 12.07 47.09 10.88 48.28 9.41 48.28 C 7.94 48.28 6.75 47.09 6.75 45.62 C 6.75 44.15 7.94 42.96 9.41 42.96 Z" fill="#69EBCC" fill-rule="evenodd" clip-rule="evenodd"/><path d=" M 9.41 42.79 C 10.88 42.79 12.07 43.98 12.07 45.45 C 12.07 46.92 10.88 48.11 9.41 48.11 C 7.94 48.11 6.75 46.92 6.75 45.45 C 6.75 43.98 7.94 42.79 9.41 42.79 Z" fill="#17A086" fill-rule="evenodd" clip-rule="evenodd"/><path d=" M 9.41 43.87 C 10.43 43.87 11.25 44.69 11.25 45.71 C 11.25 46.73 10.43 47.55 9.41 47.55 C 8.39 47.55 7.57 46.72 7.57 45.71 C 7.56 44.69 8.39 43.87 9.41 43.87 Z" fill="#19BD9B" fill-rule="evenodd" clip-rule="evenodd"/></g></g><path d=" M 51.28 31.49 L 51.28 46.46 C 51.28 48.33 49.74 49.87 47.87 49.87 L 27.97 49.87 L 19.8 41.63 L 35.03 15.35 L 51.28 31.49 Z" fill-rule="evenodd" clip-rule="evenodd" opacity="0.1"/><g><path d=" M 28.25 26.31 C 21.61 26.31 19.8 33.09 19.61 40.78 C 19.6 41.27 19.69 42.24 21.39 42.26 L 34.55 42.26 C 36.09 42.21 36.36 41.22 36.35 40.81 C 36.18 33.4 34.4 26.31 28.25 26.31 L 28.25 26.31 Z M 28.13 11.47 C 31.98 11.47 35.09 14.59 35.09 18.44 C 35.09 22.29 31.97 25.41 28.13 25.41 C 24.29 25.41 21.17 22.29 21.17 18.44 C 21.16 14.59 24.28 11.47 28.13 11.47 Z" fill="#BEC3C7" fill-rule="evenodd" clip-rule="evenodd"/><path d=" M 28.25 24.49 C 21.61 24.49 19.8 31.27 19.61 38.96 C 19.6 39.45 19.69 40.42 21.39 40.44 L 34.55 40.44 C 36.09 40.39 36.36 39.4 36.35 38.99 C 36.18 31.58 34.4 24.49 28.25 24.49 L 28.25 24.49 Z M 28.13 9.66 C 31.98 9.66 35.09 12.78 35.09 16.63 C 35.09 20.48 31.97 23.6 28.13 23.6 C 24.29 23.6 21.17 20.48 21.17 16.63 C 21.16 12.77 24.28 9.66 28.13 9.66 Z" fill="#E6E6E6" fill-rule="evenodd" clip-rule="evenodd"/><path d=" M 27.98 24.5 C 21.56 24.68 19.79 31.38 19.61 38.97 C 19.6 39.46 19.69 40.43 21.39 40.45 L 27.98 40.45 L 27.98 24.5 L 27.98 24.5 Z M 27.98 9.66 L 27.98 23.59 C 24.2 23.51 21.17 20.42 21.17 16.63 C 21.17 12.82 24.2 9.74 27.98 9.66 Z" fill="#FFFFFF" fill-rule="evenodd" clip-rule="evenodd"/><path d=" M 19.62 38.51 L 19.61 38.96 C 19.6 39.45 19.69 40.42 21.39 40.44 L 34.55 40.44 C 36.09 40.39 36.36 39.4 36.35 38.99 L 36.33 38.44 C 36.25 38.91 35.87 39.64 34.54 39.68 L 21.38 39.68 C 20 39.66 19.68 39.01 19.62 38.51 L 19.62 38.51 Z M 35.08 16.24 C 35.09 16.37 35.09 16.49 35.09 16.62 C 35.09 20.47 31.97 23.59 28.13 23.59 C 24.29 23.59 21.17 20.47 21.17 16.62 C 21.17 16.49 21.17 16.36 21.18 16.24 C 21.38 19.91 24.41 22.83 28.13 22.83 C 31.85 22.83 34.89 19.91 35.08 16.24 Z" fill="#FFFFFF" fill-rule="evenodd" clip-rule="evenodd"/></g></g></svg>