<svg version="1.1" width="57.21" height="58.57" viewBox="0 0 57.21 58.57" xmlns="http://www.w3.org/2000/svg" xmlns:xlink="http://www.w3.org/1999/xlink" overflow="visible"><defs></defs><g><g><path d=" M 4.18 0 L 53.02 0 C 55.32 0 57.2 1.88 57.2 4.18 L 57.2 54.38 C 57.2 56.68 55.32 58.56 53.02 58.56 L 4.18 58.56 C 1.88 58.56 0 56.68 0 54.38 L 0 4.18 C 0 1.88 1.88 0 4.18 0 Z" fill-rule="evenodd" clip-rule="evenodd" opacity="0.1"/><path d=" M 4.09 1.44 L 51.83 1.44 C 54.08 1.44 55.92 3.28 55.92 5.53 L 55.92 53.27 C 55.92 55.52 54.08 57.36 51.83 57.36 L 4.09 57.36 C 1.84 57.35 0 55.51 0 53.26 L 0 5.53 C 0 3.28 1.84 1.44 4.09 1.44 Z" fill="#BEC3C7" fill-rule="evenodd" clip-rule="evenodd"/><path d=" M 4.09 0 L 51.83 0 C 54.08 0 55.92 1.84 55.92 4.09 L 55.92 51.83 C 55.92 54.08 54.08 55.92 51.83 55.92 L 4.09 55.92 C 1.84 55.92 0 54.08 0 51.83 L 0 4.09 C 0 1.84 1.84 0 4.09 0 Z" fill="#ECF0F1" fill-rule="evenodd" clip-rule="evenodd"/><path d=" M 4.09 0 L 51.83 0 C 54.08 0 55.92 1.84 55.92 4.09 L 55.92 27.96 L 0 27.96 L 0 4.09 C 0 1.84 1.84 0 4.09 0 Z" fill="#FFFFFF" fill-rule="evenodd" clip-rule="evenodd"/><path d=" M 8.13 3.25 L 48.54 3.25 C 50.44 3.25 52 4.81 52 6.71 L 52 48.87 C 52 50.77 50.44 52.33 48.54 52.33 L 8.13 52.33 C 6.23 52.33 4.67 50.77 4.67 48.87 L 4.67 6.72 C 4.67 4.81 6.23 3.25 8.13 3.25 Z" fill-rule="evenodd" clip-rule="evenodd" opacity="0.2"/><path d=" M 8.08 4.89 L 47.88 4.89 C 49.76 4.89 51.29 6.42 51.29 8.3 L 51.29 48.09 C 51.29 49.97 49.76 51.5 47.88 51.5 L 8.08 51.5 C 6.21 51.5 4.67 49.97 4.67 48.09 L 4.67 8.3 C 4.67 6.42 6.21 4.89 8.08 4.89 Z" fill="#17A086" fill-rule="evenodd" clip-rule="evenodd"/><path d=" M 8.08 3.25 L 47.88 3.25 C 49.76 3.25 51.29 4.78 51.29 6.66 L 51.29 46.46 C 51.29 48.33 49.76 49.87 47.88 49.87 L 8.08 49.87 C 6.21 49.87 4.67 48.33 4.67 46.46 L 4.67 6.66 C 4.67 4.79 6.21 3.25 8.08 3.25 Z" fill="#1DD9B0" fill-rule="evenodd" clip-rule="evenodd"/><path d=" M 27.98 3.25 L 47.88 3.25 C 49.76 3.25 51.29 4.78 51.29 6.66 L 51.29 46.46 C 51.29 48.34 49.76 49.87 47.88 49.87 L 27.98 49.87 L 27.98 3.25 Z" fill="#19BD9B" fill-rule="evenodd" clip-rule="evenodd"/><g><path d=" M 46.87 42.96 C 48.34 42.96 49.53 44.15 49.53 45.62 C 49.53 47.09 48.34 48.28 46.87 48.28 C 45.4 48.28 44.21 47.09 44.21 45.62 C 44.21 44.15 45.4 42.96 46.87 42.96 Z" fill="#69EBCC" fill-rule="evenodd" clip-rule="evenodd"/><path d=" M 46.87 42.79 C 48.34 42.79 49.53 43.98 49.53 45.45 C 49.53 46.92 48.34 48.11 46.87 48.11 C 45.4 48.11 44.21 46.92 44.21 45.45 C 44.21 43.98 45.4 42.79 46.87 42.79 Z" fill="#17A086" fill-rule="evenodd" clip-rule="evenodd"/><path d=" M 46.87 43.87 C 47.89 43.87 48.71 44.69 48.71 45.71 C 48.71 46.73 47.89 47.55 46.87 47.55 C 45.85 47.55 45.03 46.73 45.03 45.71 C 45.03 44.69 45.85 43.87 46.87 43.87 Z" fill="#19BD9B" fill-rule="evenodd" clip-rule="evenodd"/></g><path d=" M 51.28 45.85 L 51.28 46.46 C 51.28 48.34 49.75 49.87 47.87 49.87 L 8.08 49.87 C 6.2 49.87 4.67 48.34 4.67 46.46 L 4.67 45.85 C 4.67 47.73 6.2 49.26 8.08 49.26 L 47.88 49.26 C 49.75 49.26 51.28 47.73 51.28 45.85 Z" fill="#69EBCC" fill-rule="evenodd" clip-rule="evenodd"/><path d=" M 55.92 51.47 L 55.92 51.82 C 55.92 54.07 54.08 55.91 51.83 55.91 L 4.09 55.91 C 1.84 55.92 0 54.08 0 51.83 L 0 51.48 C 0 53.73 1.84 55.57 4.09 55.57 L 51.83 55.57 C 54.08 55.56 55.92 53.72 55.92 51.47 Z" fill="#FFFFFF" fill-rule="evenodd" clip-rule="evenodd"/><g><path d=" M 9.41 5.1 C 10.88 5.1 12.07 6.29 12.07 7.76 C 12.07 9.23 10.88 10.42 9.41 10.42 C 7.94 10.42 6.75 9.23 6.75 7.76 C 6.75 6.29 7.94 5.1 9.41 5.1 Z" fill="#69EBCC" fill-rule="evenodd" clip-rule="evenodd"/><path d=" M 9.41 4.92 C 10.88 4.92 12.07 6.11 12.07 7.58 C 12.07 9.05 10.88 10.24 9.41 10.24 C 7.94 10.24 6.75 9.05 6.75 7.58 C 6.75 6.11 7.94 4.92 9.41 4.92 Z" fill="#17A086" fill-rule="evenodd" clip-rule="evenodd"/><path d=" M 9.41 6 C 10.43 6 11.25 6.83 11.25 7.84 C 11.25 8.86 10.43 9.68 9.41 9.68 C 8.39 9.68 7.57 8.85 7.57 7.84 C 7.56 6.83 8.39 6 9.41 6 Z" fill="#19BD9B" fill-rule="evenodd" clip-rule="evenodd"/></g><g><path d=" M 46.87 5.1 C 48.34 5.1 49.53 6.29 49.53 7.76 C 49.53 9.23 48.34 10.42 46.87 10.42 C 45.4 10.42 44.21 9.23 44.21 7.76 C 44.21 6.29 45.4 5.1 46.87 5.1 Z" fill="#69EBCC" fill-rule="evenodd" clip-rule="evenodd"/><path d=" M 46.87 4.92 C 48.34 4.92 49.53 6.11 49.53 7.58 C 49.53 9.05 48.34 10.24 46.87 10.24 C 45.4 10.24 44.21 9.05 44.21 7.58 C 44.21 6.11 45.4 4.92 46.87 4.92 Z" fill="#17A086" fill-rule="evenodd" clip-rule="evenodd"/><circle cx="46.87" cy="7.85" r="1.84" fill="#19BD9B" fill-rule="evenodd" clip-rule="evenodd"/></g><g><path d=" M 9.41 42.96 C 10.88 42.96 12.07 44.15 12.07 45.62 C 12.07 47.09 10.88 48.28 9.41 48.28 C 7.94 48.28 6.75 47.09 6.75 45.62 C 6.75 44.15 7.94 42.96 9.41 42.96 Z" fill="#69EBCC" fill-rule="evenodd" clip-rule="evenodd"/><path d=" M 9.41 42.79 C 10.88 42.79 12.07 43.98 12.07 45.45 C 12.07 46.92 10.88 48.11 9.41 48.11 C 7.94 48.11 6.75 46.92 6.75 45.45 C 6.75 43.98 7.94 42.79 9.41 42.79 Z" fill="#17A086" fill-rule="evenodd" clip-rule="evenodd"/><path d=" M 9.41 43.87 C 10.43 43.87 11.25 44.69 11.25 45.71 C 11.25 46.73 10.43 47.55 9.41 47.55 C 8.39 47.55 7.57 46.73 7.57 45.71 C 7.56 44.69 8.39 43.87 9.41 43.87 Z" fill="#19BD9B" fill-rule="evenodd" clip-rule="evenodd"/></g></g><path d=" M 51.28 34.48 L 51.28 46.46 C 51.28 48.33 49.74 49.87 47.87 49.87 L 27.97 49.87 L 18.38 39.54 L 18.52 33.15 L 13.38 27.73 L 15.83 24.86 L 26.53 24.7 L 43.18 26.38 L 51.28 34.48 Z" fill-rule="evenodd" clip-rule="evenodd" opacity="0.1"/><g><path d=" M 35.08 39.87 L 37.94 39.87 C 38.77 39.87 39.46 39.19 39.46 38.35 L 39.46 28.08 L 42.15 28.08 C 44.27 28.08 44.77 27.44 44.01 26.31 L 35.08 16.93 L 35.08 27.44 L 36.18 27.44 C 36.53 27.44 36.81 27.73 36.81 28.07 L 36.81 30.02 C 36.81 30.37 36.52 30.65 36.18 30.65 L 35.08 30.65 L 35.08 31.66 L 36.18 31.66 C 36.53 31.66 36.81 31.95 36.81 32.29 L 36.81 34.2 C 36.81 34.55 36.52 34.83 36.18 34.83 L 35.08 34.83 L 35.08 39.87 Z M 30.66 39.87 L 35.08 39.87 L 35.08 34.85 L 33.98 34.85 C 33.63 34.85 33.35 34.56 33.35 34.22 L 33.35 32.31 C 33.35 31.97 33.63 31.68 33.98 31.68 L 35.08 31.68 L 35.08 30.67 L 33.98 30.67 C 33.63 30.67 33.35 30.38 33.35 30.04 L 33.35 28.09 C 33.35 27.74 33.63 27.46 33.98 27.46 L 35.08 27.46 L 35.08 16.93 L 30.66 12.29 L 30.66 27.44 L 31.76 27.44 C 32.11 27.44 32.39 27.73 32.39 28.07 L 32.39 30.02 C 32.39 30.37 32.11 30.65 31.76 30.65 L 30.66 30.65 L 30.66 31.66 L 31.76 31.66 C 32.11 31.66 32.39 31.95 32.39 32.29 L 32.39 34.2 C 32.39 34.55 32.11 34.83 31.76 34.83 L 30.66 34.83 L 30.66 39.87 Z M 13.4 25.76 C 12.56 27 12.31 28.06 15.69 28.08 L 17.75 28.08 L 17.75 38.35 C 17.75 39.19 18.43 39.87 19.27 39.87 L 30.67 39.87 L 30.67 34.85 L 29.57 34.85 C 29.22 34.85 28.94 34.56 28.94 34.22 L 28.94 32.31 C 28.94 31.97 29.23 31.68 29.57 31.68 L 30.67 31.68 L 30.67 30.67 L 29.57 30.67 C 29.22 30.67 28.94 30.38 28.94 30.04 L 28.94 28.09 C 28.94 27.74 29.23 27.46 29.57 27.46 L 30.67 27.46 L 30.67 12.29 L 29.92 11.5 C 28.88 10.77 27.89 10.87 26.93 11.55 L 13.4 25.76 Z" fill="#BEC3C7" fill-rule="evenodd" clip-rule="evenodd"/><rect x="12.87" y="25.41" width="31.47" height="1.48" fill="#BEC3C7" fill-rule="evenodd" clip-rule="evenodd"/><path d=" M 35.08 38.02 L 37.94 38.02 C 38.77 38.02 39.46 37.34 39.46 36.5 L 39.46 26.24 L 42.15 26.24 C 44.27 26.24 44.77 25.6 44.01 24.47 L 35.08 15.09 L 35.08 26.52 L 36.18 26.52 C 36.53 26.52 36.81 26.81 36.81 27.15 L 36.81 29.35 C 36.81 29.7 36.52 29.98 36.18 29.98 L 35.08 29.98 L 35.08 30.74 L 36.18 30.74 C 36.53 30.74 36.81 31.03 36.81 31.37 L 36.81 33.57 C 36.81 33.92 36.52 34.2 36.18 34.2 L 35.08 34.2 L 35.08 38.02 Z M 30.66 38.02 L 35.08 38.02 L 35.08 34.22 L 33.98 34.22 C 33.63 34.22 33.35 33.94 33.35 33.59 L 33.35 31.39 C 33.35 31.04 33.63 30.76 33.98 30.76 L 35.08 30.76 L 35.08 30 L 33.98 30 C 33.63 30 33.35 29.72 33.35 29.37 L 33.35 27.17 C 33.35 26.82 33.63 26.54 33.98 26.54 L 35.08 26.54 L 35.08 15.09 L 30.66 10.45 L 30.66 26.52 L 31.76 26.52 C 32.11 26.52 32.39 26.81 32.39 27.15 L 32.39 29.35 C 32.39 29.7 32.11 29.98 31.76 29.98 L 30.66 29.98 L 30.66 30.74 L 31.76 30.74 C 32.11 30.74 32.39 31.03 32.39 31.37 L 32.39 33.57 C 32.39 33.92 32.11 34.2 31.76 34.2 L 30.66 34.2 L 30.66 38.02 Z M 13.4 23.92 C 12.56 25.16 12.31 26.22 15.69 26.24 L 17.75 26.24 L 17.75 36.51 C 17.75 37.35 18.43 38.03 19.27 38.03 L 30.67 38.03 L 30.67 34.23 L 29.57 34.23 C 29.22 34.23 28.94 33.95 28.94 33.6 L 28.94 31.4 C 28.94 31.05 29.23 30.77 29.57 30.77 L 30.67 30.77 L 30.67 30.01 L 29.57 30.01 C 29.22 30.01 28.94 29.73 28.94 29.38 L 28.94 27.18 C 28.94 26.83 29.23 26.55 29.57 26.55 L 30.67 26.55 L 30.67 10.45 L 29.92 9.66 C 28.88 8.93 27.89 9.03 26.93 9.71 L 13.4 23.92 Z" fill="#E6E6E6" fill-rule="evenodd" clip-rule="evenodd"/><path d=" M 13.4 23.92 C 12.56 25.16 12.31 26.22 15.69 26.24 L 17.75 26.24 L 17.75 36.51 C 17.75 37.35 18.43 38.03 19.27 38.03 L 28.61 38.03 L 28.61 9.16 C 28.04 9.12 27.48 9.33 26.93 9.71 L 13.4 23.92 Z" fill="#FFFFFF" fill-rule="evenodd" clip-rule="evenodd"/><path d=" M 12.92 24.83 C 12.68 25.64 13.19 26.22 15.69 26.24 L 17.75 26.24 L 17.75 25.62 L 15.69 25.62 C 13.88 25.61 13.12 25.3 12.92 24.83 L 12.92 24.83 Z M 17.74 35.89 L 17.74 36.51 C 17.74 37.35 18.42 38.03 19.26 38.03 L 37.94 38.03 C 38.77 38.03 39.46 37.35 39.46 36.51 L 39.46 35.89 C 39.46 36.73 38.78 37.41 37.94 37.41 L 19.26 37.41 C 18.43 37.41 17.74 36.73 17.74 35.89 L 17.74 35.89 Z M 39.46 26.24 L 42.15 26.24 C 43.92 26.24 44.56 25.8 44.28 24.99 C 44.08 25.4 43.39 25.62 42.15 25.62 L 39.46 25.62 L 39.46 26.24 L 39.46 26.24 Z M 36.18 26.52 L 33.98 26.52 C 33.64 26.52 33.36 26.8 33.35 27.14 L 33.35 26.54 C 33.35 26.19 33.63 25.91 33.98 25.91 L 36.18 25.91 C 36.53 25.91 36.81 26.19 36.81 26.54 L 36.81 27.14 C 36.81 26.8 36.53 26.52 36.18 26.52 L 36.18 26.52 Z M 31.77 26.52 L 29.57 26.52 C 29.23 26.52 28.94 26.8 28.94 27.14 L 28.94 26.54 C 28.94 26.19 29.23 25.91 29.57 25.91 L 31.77 25.91 C 32.12 25.91 32.4 26.19 32.4 26.54 L 32.4 27.14 C 32.39 26.8 32.11 26.52 31.77 26.52 L 31.77 26.52 Z M 36.18 30.76 L 33.98 30.76 C 33.64 30.76 33.36 31.04 33.35 31.38 L 33.35 30.78 C 33.35 30.43 33.63 30.15 33.98 30.15 L 36.18 30.15 C 36.53 30.15 36.81 30.44 36.81 30.78 L 36.81 31.38 C 36.81 31.03 36.53 30.76 36.18 30.76 L 36.18 30.76 Z M 31.77 30.76 L 29.57 30.76 C 29.23 30.76 28.94 31.04 28.94 31.38 L 28.94 30.78 C 28.94 30.43 29.23 30.15 29.57 30.15 L 31.77 30.15 C 32.12 30.15 32.4 30.44 32.4 30.78 L 32.4 31.38 C 32.39 31.03 32.11 30.76 31.77 30.76 Z" fill="#FFFFFF" fill-rule="evenodd" clip-rule="evenodd"/></g></g></svg>