<svg version="1.1" width="142.51" height="50.81" viewBox="0 0 142.51 50.81" xmlns="http://www.w3.org/2000/svg" xmlns:xlink="http://www.w3.org/1999/xlink" overflow="visible"><defs></defs><g><path d=" M 3.63 0 L 138.88 0 C 140.88 0 142.51 1.63 142.51 3.63 L 142.51 47.18 C 142.51 49.17 140.88 50.81 138.88 50.81 L 3.63 50.81 C 1.63 50.81 0 49.18 0 47.18 L 0 3.63 C 0 1.63 1.63 0 3.63 0 Z" fill-rule="evenodd" clip-rule="evenodd" opacity="0.1"/><path d=" M 3.55 1.24 L 137.84 1.24 C 139.79 1.24 141.39 2.84 141.39 4.79 L 141.39 46.2 C 141.39 48.15 139.79 49.75 137.84 49.75 L 3.55 49.75 C 1.6 49.75 0 48.16 0 46.21 L 0 4.79 C 0 2.84 1.6 1.24 3.55 1.24 Z" fill="#BEC3C7" fill-rule="evenodd" clip-rule="evenodd"/><path d=" M 3.55 0 L 137.84 0 C 139.79 0 141.39 1.6 141.39 3.55 L 141.39 44.96 C 141.39 46.91 139.79 48.51 137.84 48.51 L 3.55 48.51 C 1.6 48.51 0 46.91 0 44.96 L 0 3.55 C 0 1.6 1.6 0 3.55 0 Z" fill="#ECF0F1" fill-rule="evenodd" clip-rule="evenodd"/><path d=" M 3.55 0 L 137.84 0 C 139.79 0 141.39 1.6 141.39 3.55 L 141.39 24.26 L 0 24.26 L 0 3.55 C 0 1.6 1.6 0 3.55 0 Z" fill="#FFFFFF" fill-rule="evenodd" clip-rule="evenodd"/><path d=" M 7.06 2.82 L 135 2.82 C 136.65 2.82 138 4.17 138 5.82 L 138 42.4 C 138 44.05 136.65 45.4 135 45.4 L 7.06 45.4 C 5.41 45.4 4.06 44.05 4.06 42.4 L 4.06 5.83 C 4.05 4.18 5.4 2.82 7.06 2.82 Z" fill-rule="evenodd" clip-rule="evenodd" opacity="0.2"/><path d=" M 7.01 4.24 L 134.41 4.24 C 136.04 4.24 137.37 5.57 137.37 7.2 L 137.37 41.72 C 137.37 43.34 136.04 44.68 134.41 44.68 L 7.01 44.68 C 5.39 44.68 4.05 43.35 4.05 41.72 L 4.05 7.2 C 4.05 5.57 5.38 4.24 7.01 4.24 Z" fill="#17A086" fill-rule="evenodd" clip-rule="evenodd"/><path d=" M 7.01 2.82 L 134.41 2.82 C 136.04 2.82 137.37 4.15 137.37 5.78 L 137.37 40.3 C 137.37 41.93 136.04 43.26 134.41 43.26 L 7.01 43.26 C 5.39 43.26 4.05 41.93 4.05 40.3 L 4.05 5.78 C 4.05 4.15 5.38 2.82 7.01 2.82 Z" fill="#19BD9B" fill-rule="evenodd" clip-rule="evenodd"/><path d=" M 7.01 2.82 L 134.41 2.82 C 136.04 2.82 137.37 4.15 137.37 5.78 L 137.37 23.04 L 4.05 23.04 L 4.05 5.78 C 4.05 4.15 5.38 2.82 7.01 2.82 Z" fill="#1DD9B0" fill-rule="evenodd" clip-rule="evenodd"/><g><path d=" M 133.99 37.27 C 135.26 37.27 136.3 38.3 136.3 39.58 C 136.3 40.86 135.27 41.89 133.99 41.89 C 132.71 41.89 131.68 40.86 131.68 39.58 C 131.68 38.3 132.71 37.27 133.99 37.27 Z" fill="#69EBCC" fill-rule="evenodd" clip-rule="evenodd"/><path d=" M 133.99 37.12 C 135.26 37.12 136.3 38.15 136.3 39.43 C 136.3 40.7 135.27 41.74 133.99 41.74 C 132.71 41.74 131.68 40.71 131.68 39.43 C 131.68 38.15 132.71 37.12 133.99 37.12 Z" fill="#17A086" fill-rule="evenodd" clip-rule="evenodd"/><path d=" M 133.99 38.06 C 134.87 38.06 135.59 38.78 135.59 39.66 C 135.59 40.54 134.87 41.26 133.99 41.26 C 133.11 41.26 132.39 40.54 132.39 39.66 C 132.39 38.78 133.1 38.06 133.99 38.06 Z" fill="#19BD9B" fill-rule="evenodd" clip-rule="evenodd"/></g><path d=" M 137.37 39.78 L 137.37 40.31 C 137.37 41.94 136.04 43.27 134.41 43.27 L 7.01 43.27 C 5.39 43.27 4.05 41.94 4.05 40.31 L 4.05 39.78 C 4.05 41.41 5.38 42.74 7.01 42.74 L 134.41 42.74 C 136.04 42.73 137.37 41.4 137.37 39.78 Z" fill="#69EBCC" fill-rule="evenodd" clip-rule="evenodd"/><path d=" M 141.39 44.65 L 141.39 44.95 C 141.39 46.9 139.79 48.5 137.84 48.5 L 3.55 48.5 C 1.6 48.51 0 46.91 0 44.96 L 0 44.66 C 0 46.61 1.6 48.21 3.55 48.21 L 137.84 48.21 C 139.79 48.2 141.39 46.61 141.39 44.65 Z" fill="#FFFFFF" fill-rule="evenodd" clip-rule="evenodd"/><g><path d=" M 8.06 4.42 C 9.34 4.42 10.37 5.45 10.37 6.73 C 10.37 8.01 9.34 9.04 8.06 9.04 C 6.79 9.04 5.75 8.01 5.75 6.73 C 5.76 5.46 6.79 4.42 8.06 4.42 Z" fill="#69EBCC" fill-rule="evenodd" clip-rule="evenodd"/><path d=" M 8.06 4.27 C 9.34 4.27 10.37 5.3 10.37 6.58 C 10.37 7.86 9.34 8.89 8.06 8.89 C 6.79 8.89 5.75 7.86 5.75 6.58 C 5.76 5.3 6.79 4.27 8.06 4.27 Z" fill="#17A086" fill-rule="evenodd" clip-rule="evenodd"/><path d=" M 8.06 5.21 C 8.94 5.21 9.66 5.93 9.66 6.81 C 9.66 7.69 8.94 8.41 8.06 8.41 C 7.18 8.41 6.46 7.69 6.46 6.81 C 6.47 5.92 7.18 5.21 8.06 5.21 Z" fill="#19BD9B" fill-rule="evenodd" clip-rule="evenodd"/></g><g><path d=" M 133.99 4.42 C 135.26 4.42 136.3 5.45 136.3 6.73 C 136.3 8.01 135.27 9.04 133.99 9.04 C 132.71 9.04 131.68 8.01 131.68 6.73 C 131.68 5.46 132.71 4.42 133.99 4.42 Z" fill="#69EBCC" fill-rule="evenodd" clip-rule="evenodd"/><path d=" M 133.99 4.27 C 135.26 4.27 136.3 5.3 136.3 6.58 C 136.3 7.86 135.27 8.89 133.99 8.89 C 132.71 8.89 131.68 7.86 131.68 6.58 C 131.68 5.3 132.71 4.27 133.99 4.27 Z" fill="#17A086" fill-rule="evenodd" clip-rule="evenodd"/><path d=" M 133.99 5.21 C 134.87 5.21 135.59 5.93 135.59 6.81 C 135.59 7.69 134.87 8.41 133.99 8.41 C 133.11 8.41 132.39 7.69 132.39 6.81 C 132.39 5.92 133.1 5.21 133.99 5.21 Z" fill="#19BD9B" fill-rule="evenodd" clip-rule="evenodd"/></g><g><path d=" M 8.06 37.27 C 9.34 37.27 10.37 38.3 10.37 39.58 C 10.37 40.86 9.34 41.89 8.06 41.89 C 6.79 41.89 5.75 40.86 5.75 39.58 C 5.76 38.3 6.79 37.27 8.06 37.27 Z" fill="#69EBCC" fill-rule="evenodd" clip-rule="evenodd"/><path d=" M 8.06 37.12 C 9.34 37.12 10.37 38.15 10.37 39.43 C 10.37 40.7 9.34 41.74 8.06 41.74 C 6.79 41.74 5.75 40.71 5.75 39.43 C 5.76 38.15 6.79 37.12 8.06 37.12 Z" fill="#17A086" fill-rule="evenodd" clip-rule="evenodd"/><path d=" M 8.06 38.06 C 8.94 38.06 9.66 38.78 9.66 39.66 C 9.66 40.54 8.94 41.26 8.06 41.26 C 7.18 41.26 6.46 40.54 6.46 39.66 C 6.46 38.78 7.18 38.06 8.06 38.06 Z" fill="#19BD9B" fill-rule="evenodd" clip-rule="evenodd"/></g><rect x="45.88" y="2.82" width="0.84" height="40.44" fill="#69EBCC" fill-rule="evenodd" clip-rule="evenodd"/><rect x="45.5" y="2.82" width="0.84" height="40.44" fill="#17A086" fill-rule="evenodd" clip-rule="evenodd"/><g><path d=" M 41.65 37.27 C 42.93 37.27 43.96 38.3 43.96 39.58 C 43.96 40.86 42.93 41.89 41.65 41.89 C 40.38 41.89 39.34 40.86 39.34 39.58 C 39.35 38.3 40.38 37.27 41.65 37.27 Z" fill="#69EBCC" fill-rule="evenodd" clip-rule="evenodd"/><path d=" M 41.65 37.12 C 42.93 37.12 43.96 38.15 43.96 39.43 C 43.96 40.7 42.93 41.74 41.65 41.74 C 40.38 41.74 39.34 40.71 39.34 39.43 C 39.35 38.15 40.38 37.12 41.65 37.12 Z" fill="#17A086" fill-rule="evenodd" clip-rule="evenodd"/><path d=" M 41.65 38.06 C 42.53 38.06 43.25 38.78 43.25 39.66 C 43.25 40.54 42.53 41.26 41.65 41.26 C 40.77 41.26 40.05 40.54 40.05 39.66 C 40.05 38.78 40.77 38.06 41.65 38.06 Z" fill="#19BD9B" fill-rule="evenodd" clip-rule="evenodd"/></g><g><path d=" M 41.65 4.42 C 42.93 4.42 43.96 5.45 43.96 6.73 C 43.96 8.01 42.93 9.04 41.65 9.04 C 40.38 9.04 39.34 8.01 39.34 6.73 C 39.35 5.46 40.38 4.42 41.65 4.42 Z" fill="#69EBCC" fill-rule="evenodd" clip-rule="evenodd"/><path d=" M 41.65 4.27 C 42.93 4.27 43.96 5.3 43.96 6.58 C 43.96 7.86 42.93 8.89 41.65 8.89 C 40.38 8.89 39.34 7.86 39.34 6.58 C 39.35 5.3 40.38 4.27 41.65 4.27 Z" fill="#17A086" fill-rule="evenodd" clip-rule="evenodd"/><path d=" M 41.65 5.21 C 42.53 5.21 43.25 5.93 43.25 6.81 C 43.25 7.69 42.53 8.41 41.65 8.41 C 40.77 8.41 40.05 7.69 40.05 6.81 C 40.06 5.92 40.77 5.21 41.65 5.21 Z" fill="#19BD9B" fill-rule="evenodd" clip-rule="evenodd"/></g></g></svg>