<svg version="1.1" width="57.21" height="58.57" viewBox="0 0 57.21 58.57" xmlns="http://www.w3.org/2000/svg" xmlns:xlink="http://www.w3.org/1999/xlink" overflow="visible"><defs></defs><g><g><path d=" M 4.18 0 L 53.02 0 C 55.32 0 57.2 1.88 57.2 4.18 L 57.2 54.38 C 57.2 56.68 55.32 58.56 53.02 58.56 L 4.18 58.56 C 1.88 58.56 0 56.68 0 54.38 L 0 4.18 C 0 1.88 1.88 0 4.18 0 Z" fill-rule="evenodd" clip-rule="evenodd" opacity="0.1"/><path d=" M 4.09 1.44 L 51.83 1.44 C 54.08 1.44 55.92 3.28 55.92 5.53 L 55.92 53.27 C 55.92 55.52 54.08 57.36 51.83 57.36 L 4.09 57.36 C 1.84 57.35 0 55.51 0 53.26 L 0 5.53 C 0 3.28 1.84 1.44 4.09 1.44 Z" fill="#BEC3C7" fill-rule="evenodd" clip-rule="evenodd"/><path d=" M 4.09 0 L 51.83 0 C 54.08 0 55.92 1.84 55.92 4.09 L 55.92 51.83 C 55.92 54.08 54.08 55.92 51.83 55.92 L 4.09 55.92 C 1.84 55.92 0 54.08 0 51.83 L 0 4.09 C 0 1.84 1.84 0 4.09 0 Z" fill="#ECF0F1" fill-rule="evenodd" clip-rule="evenodd"/><path d=" M 4.09 0 L 51.83 0 C 54.08 0 55.92 1.84 55.92 4.09 L 55.92 27.96 L 0 27.96 L 0 4.09 C 0 1.84 1.84 0 4.09 0 Z" fill="#FFFFFF" fill-rule="evenodd" clip-rule="evenodd"/><path d=" M 8.13 3.25 L 48.54 3.25 C 50.44 3.25 52 4.81 52 6.71 L 52 48.87 C 52 50.77 50.44 52.33 48.54 52.33 L 8.13 52.33 C 6.23 52.33 4.67 50.77 4.67 48.87 L 4.67 6.72 C 4.67 4.81 6.23 3.25 8.13 3.25 Z" fill-rule="evenodd" clip-rule="evenodd" opacity="0.2"/><path d=" M 8.08 4.89 L 47.88 4.89 C 49.76 4.89 51.29 6.42 51.29 8.3 L 51.29 48.1 C 51.29 49.98 49.76 51.51 47.88 51.51 L 8.08 51.51 C 6.21 51.51 4.67 49.98 4.67 48.1 L 4.67 8.3 C 4.67 6.42 6.21 4.89 8.08 4.89 Z" fill="#17A086" fill-rule="evenodd" clip-rule="evenodd"/><path d=" M 8.08 3.25 L 47.88 3.25 C 49.76 3.25 51.29 4.78 51.29 6.66 L 51.29 46.46 C 51.29 48.34 49.76 49.87 47.88 49.87 L 8.08 49.87 C 6.21 49.87 4.67 48.34 4.67 46.46 L 4.67 6.66 C 4.67 4.79 6.21 3.25 8.08 3.25 Z" fill="#1DD9B0" fill-rule="evenodd" clip-rule="evenodd"/><path d=" M 27.98 3.25 L 47.88 3.25 C 49.76 3.25 51.29 4.78 51.29 6.66 L 51.29 46.46 C 51.29 48.33 49.76 49.87 47.88 49.87 L 27.98 49.87 L 27.98 3.25 Z" fill="#19BD9B" fill-rule="evenodd" clip-rule="evenodd"/><g><path d=" M 46.87 42.96 C 48.34 42.96 49.53 44.15 49.53 45.62 C 49.53 47.09 48.34 48.28 46.87 48.28 C 45.4 48.28 44.21 47.09 44.21 45.62 C 44.21 44.15 45.4 42.96 46.87 42.96 Z" fill="#69EBCC" fill-rule="evenodd" clip-rule="evenodd"/><path d=" M 46.87 42.79 C 48.34 42.79 49.53 43.98 49.53 45.45 C 49.53 46.92 48.34 48.11 46.87 48.11 C 45.4 48.11 44.21 46.92 44.21 45.45 C 44.21 43.98 45.4 42.79 46.87 42.79 Z" fill="#17A086" fill-rule="evenodd" clip-rule="evenodd"/><circle cx="46.87" cy="45.71" r="1.84" fill="#19BD9B" fill-rule="evenodd" clip-rule="evenodd"/></g><path d=" M 51.29 45.85 L 51.29 46.46 C 51.29 48.33 49.76 49.87 47.88 49.87 L 8.08 49.87 C 6.21 49.87 4.67 48.34 4.67 46.46 L 4.67 45.85 C 4.67 47.73 6.2 49.26 8.08 49.26 L 47.88 49.26 C 49.75 49.26 51.29 47.73 51.29 45.85 Z" fill="#69EBCC" fill-rule="evenodd" clip-rule="evenodd"/><path d=" M 55.92 51.48 L 55.92 51.83 C 55.92 54.08 54.08 55.92 51.83 55.92 L 4.09 55.92 C 1.84 55.92 0 54.08 0 51.83 L 0 51.48 C 0 53.73 1.84 55.57 4.09 55.57 L 51.83 55.57 C 54.08 55.56 55.92 53.72 55.92 51.48 Z" fill="#FFFFFF" fill-rule="evenodd" clip-rule="evenodd"/><g><path d=" M 9.41 5.1 C 10.88 5.1 12.07 6.29 12.07 7.76 C 12.07 9.23 10.88 10.42 9.41 10.42 C 7.94 10.42 6.75 9.23 6.75 7.76 C 6.75 6.29 7.94 5.1 9.41 5.1 Z" fill="#69EBCC" fill-rule="evenodd" clip-rule="evenodd"/><path d=" M 9.41 4.92 C 10.88 4.92 12.07 6.11 12.07 7.58 C 12.07 9.05 10.88 10.24 9.41 10.24 C 7.94 10.24 6.75 9.05 6.75 7.58 C 6.75 6.11 7.94 4.92 9.41 4.92 Z" fill="#17A086" fill-rule="evenodd" clip-rule="evenodd"/><circle cx="9.41" cy="7.85" r="1.84" fill="#19BD9B" fill-rule="evenodd" clip-rule="evenodd"/></g><g><path d=" M 46.87 5.1 C 48.34 5.1 49.53 6.29 49.53 7.76 C 49.53 9.23 48.34 10.42 46.87 10.42 C 45.4 10.42 44.21 9.23 44.21 7.76 C 44.21 6.29 45.4 5.1 46.87 5.1 Z" fill="#69EBCC" fill-rule="evenodd" clip-rule="evenodd"/><path d=" M 46.87 4.92 C 48.34 4.92 49.53 6.11 49.53 7.58 C 49.53 9.05 48.34 10.24 46.87 10.24 C 45.4 10.24 44.21 9.05 44.21 7.58 C 44.21 6.11 45.4 4.92 46.87 4.92 Z" fill="#17A086" fill-rule="evenodd" clip-rule="evenodd"/><circle cx="46.87" cy="7.85" r="1.84" fill="#19BD9B" fill-rule="evenodd" clip-rule="evenodd"/></g><g><path d=" M 9.41 42.96 C 10.88 42.96 12.07 44.15 12.07 45.62 C 12.07 47.09 10.88 48.28 9.41 48.28 C 7.94 48.28 6.75 47.09 6.75 45.62 C 6.75 44.15 7.94 42.96 9.41 42.96 Z" fill="#69EBCC" fill-rule="evenodd" clip-rule="evenodd"/><path d=" M 9.41 42.79 C 10.88 42.79 12.07 43.98 12.07 45.45 C 12.07 46.92 10.88 48.11 9.41 48.11 C 7.94 48.11 6.75 46.92 6.75 45.45 C 6.75 43.98 7.94 42.79 9.41 42.79 Z" fill="#17A086" fill-rule="evenodd" clip-rule="evenodd"/><circle cx="9.41" cy="45.71" r="1.84" fill="#19BD9B" fill-rule="evenodd" clip-rule="evenodd"/></g></g><path d=" M 51.29 28.2 L 51.29 46.46 C 51.29 48.33 49.75 49.87 47.88 49.87 L 27.98 49.87 L 17.71 38.85 L 17.41 15.27 L 20.88 15.27 L 24.5 18.9 L 41.6 15.27 L 51.29 28.2 Z" fill-rule="evenodd" clip-rule="evenodd" opacity="0.1"/><g><path d=" M 17.77 14.68 C 19.73 14.68 21.31 16.27 21.31 18.22 C 21.31 20.18 19.72 21.76 17.77 21.76 C 15.81 21.76 14.23 20.17 14.23 18.22 C 14.23 16.26 15.82 14.68 17.77 14.68 L 17.77 14.68 Z M 25.71 33.33 L 40.78 33.33 C 41.99 33.33 42.98 34.32 42.98 35.53 L 42.98 35.53 C 42.98 36.74 41.99 37.73 40.78 37.73 L 25.71 37.73 C 24.5 37.73 23.51 36.74 23.51 35.53 L 23.51 35.53 C 23.51 34.31 24.5 33.33 25.71 33.33 L 25.71 33.33 Z M 17.77 31.7 C 19.73 31.7 21.31 33.29 21.31 35.24 C 21.31 37.2 19.72 38.78 17.77 38.78 C 15.81 38.78 14.23 37.19 14.23 35.24 C 14.23 33.28 15.82 31.7 17.77 31.7 L 17.77 31.7 Z M 25.71 24.65 L 40.78 24.65 C 41.99 24.65 42.98 25.64 42.98 26.85 L 42.98 26.85 C 42.98 28.06 41.99 29.05 40.78 29.05 L 25.71 29.05 C 24.5 29.05 23.51 28.06 23.51 26.85 L 23.51 26.85 C 23.51 25.64 24.5 24.65 25.71 24.65 L 25.71 24.65 Z M 17.77 23.02 C 19.73 23.02 21.31 24.61 21.31 26.56 C 21.31 28.52 19.72 30.1 17.77 30.1 C 15.81 30.1 14.23 28.51 14.23 26.56 C 14.23 24.61 15.82 23.02 17.77 23.02 L 17.77 23.02 Z M 25.71 16.31 L 40.78 16.31 C 41.99 16.31 42.98 17.3 42.98 18.51 L 42.98 18.51 C 42.98 19.72 41.99 20.71 40.78 20.71 L 25.71 20.71 C 24.5 20.71 23.51 19.72 23.51 18.51 L 23.51 18.51 C 23.51 17.29 24.5 16.31 25.71 16.31 Z" fill="#BEC3C7" fill-rule="evenodd" clip-rule="evenodd"/><path d=" M 17.77 13.44 C 19.73 13.44 21.31 15.03 21.31 16.98 C 21.31 18.94 19.72 20.52 17.77 20.52 C 15.81 20.52 14.23 18.93 14.23 16.98 C 14.23 15.03 15.82 13.44 17.77 13.44 L 17.77 13.44 Z M 25.71 32.09 L 40.78 32.09 C 41.99 32.09 42.98 33.08 42.98 34.29 L 42.98 34.29 C 42.98 35.5 41.99 36.49 40.78 36.49 L 25.71 36.49 C 24.5 36.49 23.51 35.5 23.51 34.29 L 23.51 34.29 C 23.51 33.08 24.5 32.09 25.71 32.09 L 25.71 32.09 Z M 17.77 30.46 C 19.73 30.46 21.31 32.05 21.31 34 C 21.31 35.96 19.72 37.54 17.77 37.54 C 15.81 37.54 14.23 35.95 14.23 34 C 14.23 32.05 15.82 30.46 17.77 30.46 L 17.77 30.46 Z M 25.71 23.42 L 40.78 23.42 C 41.99 23.42 42.98 24.41 42.98 25.62 L 42.98 25.62 C 42.98 26.83 41.99 27.82 40.78 27.82 L 25.71 27.82 C 24.5 27.82 23.51 26.83 23.51 25.62 L 23.51 25.62 C 23.51 24.41 24.5 23.42 25.71 23.42 L 25.71 23.42 Z M 17.77 21.79 C 19.73 21.79 21.31 23.38 21.31 25.33 C 21.31 27.28 19.72 28.87 17.77 28.87 C 15.81 28.87 14.23 27.28 14.23 25.33 C 14.23 23.38 15.82 21.79 17.77 21.79 L 17.77 21.79 Z M 25.71 15.07 L 40.78 15.07 C 41.99 15.07 42.98 16.06 42.98 17.27 L 42.98 17.27 C 42.98 18.48 41.99 19.47 40.78 19.47 L 25.71 19.47 C 24.5 19.47 23.51 18.48 23.51 17.27 L 23.51 17.27 C 23.51 16.06 24.5 15.07 25.71 15.07 Z" fill="#E6E6E6" fill-rule="evenodd" clip-rule="evenodd"/><path d=" M 17.77 13.44 C 19.73 13.44 21.31 15.03 21.31 16.98 C 21.31 18.94 19.72 20.52 17.77 20.52 C 15.81 20.52 14.23 18.93 14.23 16.98 C 14.23 15.03 15.82 13.44 17.77 13.44 L 17.77 13.44 Z M 42.97 25.42 L 23.52 25.42 C 23.62 24.3 24.57 23.42 25.71 23.42 L 40.78 23.42 C 41.92 23.42 42.87 24.3 42.97 25.42 L 42.97 25.42 Z M 21.31 25.42 L 14.23 25.42 L 14.23 25.33 C 14.23 23.37 15.82 21.79 17.77 21.79 C 19.73 21.79 21.31 23.38 21.31 25.33 L 21.31 25.42 L 21.31 25.42 Z M 25.71 15.07 L 40.78 15.07 C 41.99 15.07 42.98 16.06 42.98 17.27 L 42.98 17.27 C 42.98 18.48 41.99 19.47 40.78 19.47 L 25.71 19.47 C 24.5 19.47 23.51 18.48 23.51 17.27 L 23.51 17.27 C 23.51 16.06 24.5 15.07 25.71 15.07 Z" fill="#FFFFFF" fill-rule="evenodd" clip-rule="evenodd"/><path d=" M 21.31 16.81 C 21.31 16.87 21.31 16.93 21.31 16.99 C 21.31 18.95 19.72 20.53 17.77 20.53 C 15.81 20.53 14.23 18.94 14.23 16.99 C 14.23 16.93 14.23 16.87 14.23 16.81 C 14.32 18.68 15.87 20.18 17.77 20.18 C 19.67 20.18 21.22 18.68 21.31 16.81 L 21.31 16.81 Z M 42.97 34.12 C 42.97 34.18 42.98 34.24 42.98 34.29 L 42.98 34.29 C 42.98 35.5 41.99 36.49 40.78 36.49 L 25.71 36.49 C 24.5 36.49 23.51 35.5 23.51 34.29 L 23.51 34.29 C 23.51 34.23 23.51 34.17 23.52 34.12 C 23.61 35.25 24.56 36.14 25.71 36.14 L 40.78 36.14 C 41.93 36.14 42.88 35.24 42.97 34.12 L 42.97 34.12 Z M 21.31 33.83 C 21.31 33.89 21.31 33.95 21.31 34.01 C 21.31 35.97 19.72 37.55 17.77 37.55 C 15.81 37.55 14.23 35.96 14.23 34.01 C 14.23 33.95 14.23 33.89 14.23 33.83 C 14.32 35.71 15.87 37.2 17.77 37.2 C 19.67 37.2 21.22 35.7 21.31 33.83 L 21.31 33.83 Z M 42.97 25.44 C 42.97 25.5 42.98 25.56 42.98 25.61 L 42.98 25.61 C 42.98 26.82 41.99 27.81 40.78 27.81 L 25.71 27.81 C 24.5 27.81 23.51 26.82 23.51 25.61 L 23.51 25.61 C 23.51 25.55 23.51 25.49 23.52 25.44 C 23.61 26.57 24.56 27.46 25.71 27.46 L 40.78 27.46 C 41.93 27.47 42.88 26.57 42.97 25.44 L 42.97 25.44 Z M 21.31 25.16 C 21.31 25.22 21.31 25.28 21.31 25.34 C 21.31 27.3 19.72 28.88 17.77 28.88 C 15.81 28.88 14.23 27.29 14.23 25.34 C 14.23 25.28 14.23 25.22 14.23 25.16 C 14.32 27.04 15.87 28.53 17.77 28.53 C 19.67 28.52 21.22 27.03 21.31 25.16 L 21.31 25.16 Z M 42.97 17.09 C 42.97 17.15 42.98 17.21 42.98 17.27 L 42.98 17.27 C 42.98 18.48 41.99 19.47 40.78 19.47 L 25.71 19.47 C 24.5 19.47 23.51 18.48 23.51 17.27 L 23.51 17.27 C 23.51 17.21 23.51 17.15 23.52 17.09 C 23.61 18.22 24.56 19.11 25.71 19.11 L 40.78 19.11 C 41.93 19.12 42.88 18.22 42.97 17.09 Z" fill="#FFFFFF" fill-rule="evenodd" clip-rule="evenodd"/></g></g></svg>