<svg version="1.1" width="57.21" height="58.57" viewBox="0 0 57.21 58.57" xmlns="http://www.w3.org/2000/svg" xmlns:xlink="http://www.w3.org/1999/xlink" overflow="visible"><defs></defs><g><g><path d=" M 4.18 0 L 53.02 0 C 55.32 0 57.2 1.88 57.2 4.18 L 57.2 54.38 C 57.2 56.68 55.32 58.56 53.02 58.56 L 4.18 58.56 C 1.88 58.56 0 56.68 0 54.38 L 0 4.18 C 0 1.88 1.88 0 4.18 0 Z" fill-rule="evenodd" clip-rule="evenodd" opacity="0.1"/><path d=" M 4.09 1.44 L 51.83 1.44 C 54.08 1.44 55.92 3.28 55.92 5.53 L 55.92 53.27 C 55.92 55.52 54.08 57.36 51.83 57.36 L 4.09 57.36 C 1.84 57.35 0 55.51 0 53.26 L 0 5.53 C 0 3.28 1.84 1.44 4.09 1.44 Z" fill="#BEC3C7" fill-rule="evenodd" clip-rule="evenodd"/><path d=" M 4.09 0 L 51.83 0 C 54.08 0 55.92 1.84 55.92 4.09 L 55.92 51.83 C 55.92 54.08 54.08 55.92 51.83 55.92 L 4.09 55.92 C 1.84 55.92 0 54.08 0 51.83 L 0 4.09 C 0 1.84 1.84 0 4.09 0 Z" fill="#ECF0F1" fill-rule="evenodd" clip-rule="evenodd"/><path d=" M 4.09 0 L 51.83 0 C 54.08 0 55.92 1.84 55.92 4.09 L 55.92 27.96 L 0 27.96 L 0 4.09 C 0 1.84 1.84 0 4.09 0 Z" fill="#FFFFFF" fill-rule="evenodd" clip-rule="evenodd"/><path d=" M 8.13 3.25 L 48.54 3.25 C 50.44 3.25 52 4.81 52 6.71 L 52 48.87 C 52 50.78 50.44 52.33 48.54 52.33 L 8.13 52.33 C 6.23 52.33 4.67 50.77 4.67 48.87 L 4.67 6.72 C 4.67 4.81 6.23 3.25 8.13 3.25 Z" fill-rule="evenodd" clip-rule="evenodd" opacity="0.2"/><path d=" M 8.08 4.89 L 47.88 4.89 C 49.76 4.89 51.29 6.42 51.29 8.3 L 51.29 48.09 C 51.29 49.97 49.76 51.5 47.88 51.5 L 8.08 51.5 C 6.21 51.5 4.67 49.97 4.67 48.09 L 4.67 8.3 C 4.67 6.42 6.21 4.89 8.08 4.89 Z" fill="#17A086" fill-rule="evenodd" clip-rule="evenodd"/><path d=" M 8.08 3.25 L 47.88 3.25 C 49.76 3.25 51.29 4.78 51.29 6.66 L 51.29 46.46 C 51.29 48.33 49.76 49.87 47.88 49.87 L 8.08 49.87 C 6.21 49.87 4.67 48.34 4.67 46.46 L 4.67 6.66 C 4.67 4.79 6.21 3.25 8.08 3.25 Z" fill="#1DD9B0" fill-rule="evenodd" clip-rule="evenodd"/><path d=" M 27.98 3.25 L 47.88 3.25 C 49.76 3.25 51.29 4.78 51.29 6.66 L 51.29 46.46 C 51.29 48.34 49.76 49.87 47.88 49.87 L 27.98 49.87 L 27.98 3.25 Z" fill="#19BD9B" fill-rule="evenodd" clip-rule="evenodd"/><g><path d=" M 46.87 42.96 C 48.34 42.96 49.53 44.15 49.53 45.62 C 49.53 47.09 48.34 48.28 46.87 48.28 C 45.4 48.28 44.21 47.09 44.21 45.62 C 44.21 44.15 45.4 42.96 46.87 42.96 Z" fill="#69EBCC" fill-rule="evenodd" clip-rule="evenodd"/><path d=" M 46.87 42.79 C 48.34 42.79 49.53 43.98 49.53 45.45 C 49.53 46.92 48.34 48.11 46.87 48.11 C 45.4 48.11 44.21 46.92 44.21 45.45 C 44.21 43.98 45.4 42.79 46.87 42.79 Z" fill="#17A086" fill-rule="evenodd" clip-rule="evenodd"/><circle cx="46.87" cy="45.71" r="1.84" fill="#19BD9B" fill-rule="evenodd" clip-rule="evenodd"/></g><path d=" M 51.28 45.85 L 51.28 46.46 C 51.28 48.34 49.75 49.87 47.87 49.87 L 8.08 49.87 C 6.2 49.87 4.67 48.34 4.67 46.46 L 4.67 45.85 C 4.67 47.72 6.2 49.26 8.08 49.26 L 47.88 49.26 C 49.75 49.26 51.28 47.72 51.28 45.85 Z" fill="#69EBCC" fill-rule="evenodd" clip-rule="evenodd"/><path d=" M 55.92 51.47 L 55.92 51.82 C 55.92 54.07 54.08 55.91 51.83 55.91 L 4.09 55.91 C 1.84 55.92 0 54.08 0 51.83 L 0 51.48 C 0 53.73 1.84 55.57 4.09 55.57 L 51.83 55.57 C 54.08 55.56 55.92 53.72 55.92 51.47 Z" fill="#FFFFFF" fill-rule="evenodd" clip-rule="evenodd"/><g><path d=" M 9.41 5.1 C 10.88 5.1 12.07 6.29 12.07 7.76 C 12.07 9.23 10.88 10.42 9.41 10.42 C 7.94 10.42 6.75 9.23 6.75 7.76 C 6.75 6.29 7.94 5.1 9.41 5.1 Z" fill="#69EBCC" fill-rule="evenodd" clip-rule="evenodd"/><path d=" M 9.41 4.92 C 10.88 4.92 12.07 6.11 12.07 7.58 C 12.07 9.05 10.88 10.24 9.41 10.24 C 7.94 10.24 6.75 9.05 6.75 7.58 C 6.75 6.11 7.94 4.92 9.41 4.92 Z" fill="#17A086" fill-rule="evenodd" clip-rule="evenodd"/><path d=" M 9.41 6 C 10.43 6 11.25 6.83 11.25 7.84 C 11.25 8.86 10.43 9.68 9.41 9.68 C 8.39 9.68 7.57 8.86 7.57 7.84 C 7.56 6.83 8.39 6 9.41 6 Z" fill="#19BD9B" fill-rule="evenodd" clip-rule="evenodd"/></g><g><path d=" M 46.87 5.1 C 48.34 5.1 49.53 6.29 49.53 7.76 C 49.53 9.23 48.34 10.42 46.87 10.42 C 45.4 10.42 44.21 9.23 44.21 7.76 C 44.21 6.29 45.4 5.1 46.87 5.1 Z" fill="#69EBCC" fill-rule="evenodd" clip-rule="evenodd"/><path d=" M 46.87 4.92 C 48.34 4.92 49.53 6.11 49.53 7.58 C 49.53 9.05 48.34 10.24 46.87 10.24 C 45.4 10.24 44.21 9.05 44.21 7.58 C 44.21 6.11 45.4 4.92 46.87 4.92 Z" fill="#17A086" fill-rule="evenodd" clip-rule="evenodd"/><ellipse cx="46.87" cy="7.85" rx="1.84" ry="1.84" fill="#19BD9B" fill-rule="evenodd" clip-rule="evenodd" transform="matrix(0.0462,-0.9989,0.9989,0.0462,36.8685,54.306)"/></g><g><path d=" M 9.41 42.96 C 10.88 42.96 12.07 44.15 12.07 45.62 C 12.07 47.09 10.88 48.28 9.41 48.28 C 7.94 48.28 6.75 47.09 6.75 45.62 C 6.75 44.15 7.94 42.96 9.41 42.96 Z" fill="#69EBCC" fill-rule="evenodd" clip-rule="evenodd"/><path d=" M 9.41 42.79 C 10.88 42.79 12.07 43.98 12.07 45.45 C 12.07 46.92 10.88 48.11 9.41 48.11 C 7.94 48.11 6.75 46.92 6.75 45.45 C 6.75 43.98 7.94 42.79 9.41 42.79 Z" fill="#17A086" fill-rule="evenodd" clip-rule="evenodd"/><path d=" M 9.41 43.87 C 10.43 43.87 11.25 44.7 11.25 45.71 C 11.25 46.73 10.43 47.55 9.41 47.55 C 8.39 47.55 7.57 46.72 7.57 45.71 C 7.56 44.7 8.39 43.87 9.41 43.87 Z" fill="#19BD9B" fill-rule="evenodd" clip-rule="evenodd"/></g></g><path d=" M 51.28 28.96 L 51.28 46.46 C 51.28 48.33 49.74 49.87 47.87 49.87 L 29.79 49.87 L 20.76 39.24 L 27.97 28.2 L 41.38 18.3 L 51.28 28.96 Z" fill-rule="evenodd" clip-rule="evenodd" opacity="0.1"/><g><path d=" M 21.85 13.63 L 28.6 20.56 L 35.35 13.63 C 35.83 13.14 36.63 13.12 37.12 13.61 L 41.01 17.4 C 41.51 17.88 41.51 18.68 41.03 19.17 L 34.13 26.26 L 41.03 33.35 C 41.51 33.84 41.5 34.64 41.01 35.12 L 37.12 38.91 C 36.63 39.39 35.83 39.38 35.35 38.89 L 28.6 31.95 L 21.85 38.89 C 21.37 39.38 20.58 39.39 20.08 38.91 L 16.19 35.12 C 15.7 34.64 15.69 33.84 16.17 33.35 L 23.07 26.26 L 16.17 19.17 C 15.69 18.68 15.7 17.88 16.19 17.4 L 20.08 13.61 C 20.58 13.13 21.37 13.14 21.85 13.63 Z" fill="#BEC3C7" fill-rule="evenodd" clip-rule="evenodd"/><rect x="15.81" y="32.26" width="1.82" height="1.93" fill="#BEC3C7" fill-rule="evenodd" clip-rule="evenodd"/><rect x="39.57" y="32.26" width="1.82" height="1.93" fill="#BEC3C7" fill-rule="evenodd" clip-rule="evenodd"/><path d=" M 21.85 11.71 L 28.6 18.64 L 35.35 11.71 C 35.83 11.22 36.63 11.21 37.12 11.69 L 41.01 15.48 C 41.51 15.96 41.51 16.76 41.03 17.25 L 34.13 24.34 L 41.03 31.43 C 41.51 31.92 41.5 32.72 41.01 33.2 L 37.12 36.99 C 36.63 37.47 35.83 37.46 35.35 36.97 L 28.6 30.04 L 21.85 36.97 C 21.37 37.46 20.58 37.48 20.08 36.99 L 16.19 33.2 C 15.7 32.72 15.69 31.92 16.17 31.43 L 23.07 24.34 L 16.17 17.25 C 15.69 16.76 15.7 15.96 16.19 15.48 L 20.08 11.69 C 20.58 11.21 21.37 11.22 21.85 11.71 Z" fill="#E6E6E6" fill-rule="evenodd" clip-rule="evenodd"/><rect x="39.57" y="16.36" width="1.82" height="1.93" fill="#BEC3C7" fill-rule="evenodd" clip-rule="evenodd"/><rect x="15.81" y="16.36" width="1.82" height="1.93" fill="#BEC3C7" fill-rule="evenodd" clip-rule="evenodd"/><path d=" M 21.85 11.71 L 28.6 18.65 L 35.35 11.71 C 35.83 11.22 36.63 11.21 37.12 11.69 L 41.01 15.48 C 41.51 15.96 41.51 16.76 41.03 17.25 L 34.14 24.33 L 23.06 24.33 L 16.17 17.25 C 15.69 16.76 15.7 15.96 16.19 15.48 L 20.08 11.69 C 20.58 11.21 21.37 11.22 21.85 11.71 Z" fill="#FFFFFF" fill-rule="evenodd" clip-rule="evenodd"/><path d=" M 41.36 16.1 C 41.45 16.5 41.34 16.94 41.04 17.25 L 34.41 24.06 L 34.14 23.78 L 41.04 16.69 C 41.2 16.52 41.31 16.31 41.36 16.1 L 41.36 16.1 Z M 41.36 32.02 C 41.45 32.43 41.34 32.88 41.01 33.2 L 37.12 36.99 C 36.63 37.47 35.83 37.46 35.35 36.97 L 28.6 30.04 L 21.85 36.97 C 21.37 37.46 20.58 37.48 20.08 36.99 L 16.19 33.2 C 15.87 32.89 15.75 32.44 15.84 32.02 C 15.89 32.25 16.01 32.46 16.19 32.64 L 20.08 36.43 C 20.57 36.91 21.37 36.9 21.85 36.41 L 28.6 29.48 L 35.35 36.41 C 35.83 36.9 36.63 36.92 37.12 36.43 L 41.01 32.64 C 41.19 32.47 41.31 32.25 41.36 32.02 L 41.36 32.02 Z M 22.8 24.06 L 16.17 17.25 C 15.86 16.94 15.76 16.5 15.85 16.1 C 15.9 16.32 16.01 16.52 16.17 16.7 L 23.07 23.79 L 22.8 24.06 Z" fill="#FFFFFF" fill-rule="evenodd" clip-rule="evenodd"/></g></g></svg>