<svg version="1.1" width="269.91" height="96.23" viewBox="0 0 269.91 96.23" xmlns="http://www.w3.org/2000/svg" xmlns:xlink="http://www.w3.org/1999/xlink" overflow="visible"><defs></defs><g><g><path d=" M 6.87 0 L 263.04 0 C 266.82 0 269.91 3.1 269.91 6.87 L 269.91 89.36 C 269.91 93.14 266.81 96.23 263.04 96.23 L 6.87 96.23 C 3.1 96.23 0 93.14 0 89.36 L 0 6.87 C 0 3.09 3.09 0 6.87 0 Z" fill-rule="evenodd" clip-rule="evenodd" opacity="0.1"/><path d=" M 6.72 2.36 L 261.07 2.36 C 264.77 2.36 267.79 5.39 267.79 9.08 L 267.79 87.52 C 267.79 91.21 264.76 94.24 261.07 94.24 L 6.72 94.24 C 3.03 94.24 0 91.21 0 87.51 L 0 9.08 C 0 5.38 3.02 2.36 6.72 2.36 Z" fill="#BDC2C6" fill-rule="evenodd" clip-rule="evenodd"/><path d=" M 6.72 0 L 261.07 0 C 264.77 0 267.79 3.03 267.79 6.72 L 267.79 85.16 C 267.79 88.85 264.76 91.88 261.07 91.88 L 6.72 91.88 C 3.03 91.88 0 88.85 0 85.16 L 0 6.72 C 0 3.02 3.02 0 6.72 0 Z" fill="#EBEFF0" fill-rule="evenodd" clip-rule="evenodd"/><path d=" M 6.72 0 L 261.07 0 C 264.77 0 267.79 3.03 267.79 6.72 L 267.79 45.94 L 0 45.94 L 0 6.72 C 0 3.02 3.02 0 6.72 0 Z" fill="#FFFFFF" fill-rule="evenodd" clip-rule="evenodd"/><path d=" M 13.36 5.35 L 255.68 5.35 C 258.81 5.35 261.37 7.91 261.37 11.04 L 261.37 80.3 C 261.37 83.43 258.81 85.99 255.68 85.99 L 13.36 85.99 C 10.23 85.99 7.67 83.43 7.67 80.3 L 7.67 11.04 C 7.67 7.91 10.23 5.35 13.36 5.35 Z" fill-rule="evenodd" clip-rule="evenodd" opacity="0.2"/><path d=" M 13.28 8.03 L 254.59 8.03 C 257.67 8.03 260.19 10.55 260.19 13.63 L 260.19 79.02 C 260.19 82.1 257.67 84.62 254.59 84.62 L 13.28 84.62 C 10.2 84.62 7.68 82.1 7.68 79.02 L 7.68 13.63 C 7.67 10.55 10.2 8.03 13.28 8.03 Z" fill="#179F85" fill-rule="evenodd" clip-rule="evenodd"/><path d=" M 13.28 5.35 L 254.59 5.35 C 257.67 5.35 260.19 7.87 260.19 10.95 L 260.19 76.34 C 260.19 79.42 257.67 81.94 254.59 81.94 L 13.28 81.94 C 10.2 81.94 7.68 79.42 7.68 76.34 L 7.68 10.95 C 7.67 7.87 10.2 5.35 13.28 5.35 Z" fill="#19BC9A" fill-rule="evenodd" clip-rule="evenodd"/><path d=" M 13.28 5.35 L 254.59 5.35 C 257.67 5.35 260.19 7.87 260.19 10.95 L 260.19 43.65 L 7.67 43.65 L 7.67 10.95 C 7.67 7.87 10.2 5.35 13.28 5.35 Z" fill="#1DD8AF" fill-rule="evenodd" clip-rule="evenodd"/><g><path d=" M 253.78 70.6 C 256.2 70.6 258.15 72.56 258.15 74.97 C 258.15 77.39 256.19 79.34 253.78 79.34 C 251.37 79.34 249.41 77.38 249.41 74.97 C 249.41 72.55 251.37 70.6 253.78 70.6 Z" fill="#69EACB" fill-rule="evenodd" clip-rule="evenodd"/><path d=" M 253.78 70.31 C 256.2 70.31 258.15 72.27 258.15 74.68 C 258.15 77.1 256.19 79.05 253.78 79.05 C 251.37 79.05 249.41 77.09 249.41 74.68 C 249.41 72.26 251.37 70.31 253.78 70.31 Z" fill="#179F85" fill-rule="evenodd" clip-rule="evenodd"/><path d=" M 253.78 72.08 C 255.45 72.08 256.81 73.44 256.81 75.11 C 256.81 76.78 255.45 78.14 253.78 78.14 C 252.11 78.14 250.75 76.78 250.75 75.11 C 250.75 73.44 252.11 72.08 253.78 72.08 Z" fill="#19BC9A" fill-rule="evenodd" clip-rule="evenodd"/></g><path d=" M 260.18 75.34 L 260.18 76.34 C 260.18 79.42 257.66 81.94 254.58 81.94 L 13.28 81.94 C 10.2 81.94 7.68 79.42 7.68 76.34 L 7.68 75.34 C 7.68 78.42 10.2 80.94 13.28 80.94 L 254.59 80.94 C 257.67 80.94 260.18 78.42 260.18 75.34 Z" fill="#69EACB" fill-rule="evenodd" clip-rule="evenodd"/><path d=" M 267.79 84.58 L 267.79 85.16 C 267.79 88.85 264.76 91.88 261.07 91.88 L 6.72 91.88 C 3.03 91.88 0 88.85 0 85.16 L 0 84.58 C 0 88.28 3.02 91.3 6.72 91.3 L 261.07 91.3 C 264.77 91.3 267.79 88.27 267.79 84.58 Z" fill="#FFFFFF" fill-rule="evenodd" clip-rule="evenodd"/><g><path d=" M 15.27 8.38 C 17.68 8.38 19.64 10.34 19.64 12.75 C 19.64 15.17 17.68 17.12 15.27 17.12 C 12.85 17.12 10.9 15.16 10.9 12.75 C 10.9 10.33 12.86 8.38 15.27 8.38 Z" fill="#69EACB" fill-rule="evenodd" clip-rule="evenodd"/><path d=" M 15.27 8.09 C 17.68 8.09 19.64 10.05 19.64 12.46 C 19.64 14.88 17.68 16.83 15.27 16.83 C 12.85 16.83 10.9 14.87 10.9 12.46 C 10.9 10.04 12.86 8.09 15.27 8.09 Z" fill="#179F85" fill-rule="evenodd" clip-rule="evenodd"/><circle cx="15.27" cy="12.89" r="3.03" fill="#19BC9A" fill-rule="evenodd" clip-rule="evenodd"/></g><g><path d=" M 253.78 8.38 C 256.2 8.38 258.15 10.34 258.15 12.75 C 258.15 15.17 256.19 17.12 253.78 17.12 C 251.37 17.12 249.41 15.16 249.41 12.75 C 249.41 10.33 251.37 8.38 253.78 8.38 Z" fill="#69EACB" fill-rule="evenodd" clip-rule="evenodd"/><path d=" M 253.78 8.09 C 256.2 8.09 258.15 10.05 258.15 12.46 C 258.15 14.88 256.19 16.83 253.78 16.83 C 251.37 16.83 249.41 14.87 249.41 12.46 C 249.41 10.04 251.37 8.09 253.78 8.09 Z" fill="#179F85" fill-rule="evenodd" clip-rule="evenodd"/><circle cx="253.78" cy="12.89" r="3.03" fill="#19BC9A" fill-rule="evenodd" clip-rule="evenodd"/></g><g><path d=" M 15.27 70.6 C 17.68 70.6 19.64 72.56 19.64 74.97 C 19.64 77.39 17.68 79.34 15.27 79.34 C 12.85 79.34 10.9 77.38 10.9 74.97 C 10.9 72.55 12.86 70.6 15.27 70.6 Z" fill="#69EACB" fill-rule="evenodd" clip-rule="evenodd"/><path d=" M 15.27 70.31 C 17.68 70.31 19.64 72.27 19.64 74.68 C 19.64 77.1 17.68 79.05 15.27 79.05 C 12.85 79.05 10.9 77.09 10.9 74.68 C 10.9 72.26 12.86 70.31 15.27 70.31 Z" fill="#179F85" fill-rule="evenodd" clip-rule="evenodd"/><path d=" M 15.27 72.08 C 16.94 72.08 18.3 73.44 18.3 75.11 C 18.3 76.78 16.94 78.14 15.27 78.14 C 13.6 78.14 12.24 76.78 12.24 75.11 C 12.25 73.44 13.6 72.08 15.27 72.08 Z" fill="#19BC9A" fill-rule="evenodd" clip-rule="evenodd"/></g><rect x="86.9" y="5.35" width="1.6" height="76.59" fill="#69EACB" fill-rule="evenodd" clip-rule="evenodd"/><rect x="86.19" y="5.35" width="1.6" height="76.59" fill="#179F85" fill-rule="evenodd" clip-rule="evenodd"/><g><path d=" M 78.9 70.6 C 81.31 70.6 83.27 72.56 83.27 74.97 C 83.27 77.39 81.31 79.34 78.9 79.34 C 76.48 79.34 74.53 77.38 74.53 74.97 C 74.52 72.55 76.48 70.6 78.9 70.6 Z" fill="#69EACB" fill-rule="evenodd" clip-rule="evenodd"/><path d=" M 78.9 70.31 C 81.31 70.31 83.27 72.27 83.27 74.68 C 83.27 77.1 81.31 79.05 78.9 79.05 C 76.48 79.05 74.53 77.09 74.53 74.68 C 74.52 72.26 76.48 70.31 78.9 70.31 Z" fill="#179F85" fill-rule="evenodd" clip-rule="evenodd"/><path d=" M 78.9 72.08 C 80.57 72.08 81.93 73.44 81.93 75.11 C 81.93 76.78 80.57 78.14 78.9 78.14 C 77.23 78.14 75.87 76.78 75.87 75.11 C 75.87 73.44 77.22 72.08 78.9 72.08 Z" fill="#19BC9A" fill-rule="evenodd" clip-rule="evenodd"/></g><g><path d=" M 78.9 8.38 C 81.31 8.38 83.27 10.34 83.27 12.75 C 83.27 15.17 81.31 17.12 78.9 17.12 C 76.48 17.12 74.53 15.16 74.53 12.75 C 74.52 10.33 76.48 8.38 78.9 8.38 Z" fill="#69EACB" fill-rule="evenodd" clip-rule="evenodd"/><path d=" M 78.9 8.09 C 81.31 8.09 83.27 10.05 83.27 12.46 C 83.27 14.88 81.31 16.83 78.9 16.83 C 76.48 16.83 74.53 14.87 74.53 12.46 C 74.52 10.04 76.48 8.09 78.9 8.09 Z" fill="#179F85" fill-rule="evenodd" clip-rule="evenodd"/><path d=" M 78.9 9.86 C 80.57 9.86 81.93 11.22 81.93 12.89 C 81.93 14.56 80.57 15.92 78.9 15.92 C 77.23 15.92 75.87 14.56 75.87 12.89 C 75.87 11.22 77.22 9.86 78.9 9.86 Z" fill="#19BC9A" fill-rule="evenodd" clip-rule="evenodd"/></g></g><path d=" M 38.85 81.94 L 27.85 70.15 L 73.16 41.48 L 86.19 54.5 L 86.19 81.94 Z" fill-rule="evenodd" clip-rule="evenodd" opacity="0.1"/><g><path d=" M 32.67 69.57 C 29.28 71.04 26.36 71.48 26.31 65.56 L 26.31 19.14 C 26.3 15.42 28.06 14.54 31.16 15.87 L 71.8 40.61 C 73.81 42.43 73.52 44.16 71.65 45.85 L 32.67 69.57 Z" fill="#BDC2C6" fill-rule="evenodd" clip-rule="evenodd"/><path d=" M 32.67 66.27 C 29.28 67.67 26.36 68.08 26.31 62.47 L 26.31 18.44 C 26.3 14.91 28.06 14.08 31.16 15.34 L 71.8 38.8 C 73.81 40.53 73.52 42.17 71.65 43.76 L 32.67 66.27 Z" fill="#E5E5E5" fill-rule="evenodd" clip-rule="evenodd"/><path d=" M 26.31 41.48 L 26.31 18.44 C 26.3 14.91 28.06 14.08 31.16 15.34 L 71.8 38.8 C 72.87 39.72 73.28 40.61 73.16 41.48 L 26.31 41.48 Z" fill="#FFFFFF" fill-rule="evenodd" clip-rule="evenodd"/><path d=" M 32.67 66.27 C 29.28 67.66 26.36 68.08 26.31 62.46 L 26.31 61.35 C 26.36 66.97 29.28 66.55 32.67 65.16 L 71.65 42.65 C 72.42 41.99 72.93 41.32 73.11 40.63 C 73.39 41.7 72.85 42.74 71.65 43.76 L 32.67 66.27 Z" fill="#FFFFFF" fill-rule="evenodd" clip-rule="evenodd"/></g></g></svg>