<svg version="1.1" width="57.21" height="58.57" viewBox="0 0 57.21 58.57" xmlns="http://www.w3.org/2000/svg" xmlns:xlink="http://www.w3.org/1999/xlink" overflow="visible"><defs></defs><g><g><path d=" M 4.18 0 L 53.02 0 C 55.32 0 57.2 1.88 57.2 4.18 L 57.2 54.38 C 57.2 56.68 55.32 58.56 53.02 58.56 L 4.18 58.56 C 1.88 58.56 0 56.68 0 54.38 L 0 4.18 C 0 1.88 1.88 0 4.18 0 Z" fill-rule="evenodd" clip-rule="evenodd" opacity="0.1"/><path d=" M 4.09 1.44 L 51.83 1.44 C 54.08 1.44 55.92 3.28 55.92 5.53 L 55.92 53.27 C 55.92 55.52 54.08 57.36 51.83 57.36 L 4.09 57.36 C 1.84 57.35 0 55.51 0 53.26 L 0 5.53 C 0 3.28 1.84 1.44 4.09 1.44 Z" fill="#BEC3C7" fill-rule="evenodd" clip-rule="evenodd"/><path d=" M 4.09 0 L 51.83 0 C 54.08 0 55.92 1.84 55.92 4.09 L 55.92 51.83 C 55.92 54.08 54.08 55.92 51.83 55.92 L 4.09 55.92 C 1.84 55.92 0 54.08 0 51.83 L 0 4.09 C 0 1.84 1.84 0 4.09 0 Z" fill="#ECF0F1" fill-rule="evenodd" clip-rule="evenodd"/><path d=" M 4.09 0 L 51.83 0 C 54.08 0 55.92 1.84 55.92 4.09 L 55.92 27.96 L 0 27.96 L 0 4.09 C 0 1.84 1.84 0 4.09 0 Z" fill="#FFFFFF" fill-rule="evenodd" clip-rule="evenodd"/><path d=" M 8.13 3.25 L 48.54 3.25 C 50.44 3.25 52 4.81 52 6.71 L 52 48.87 C 52 50.78 50.44 52.33 48.54 52.33 L 8.13 52.33 C 6.23 52.33 4.67 50.77 4.67 48.87 L 4.67 6.72 C 4.67 4.81 6.23 3.25 8.13 3.25 Z" fill-rule="evenodd" clip-rule="evenodd" opacity="0.2"/><path d=" M 8.08 4.89 L 47.88 4.89 C 49.76 4.89 51.29 6.42 51.29 8.3 L 51.29 48.09 C 51.29 49.97 49.76 51.5 47.88 51.5 L 8.08 51.5 C 6.21 51.5 4.67 49.97 4.67 48.09 L 4.67 8.3 C 4.67 6.42 6.21 4.89 8.08 4.89 Z" fill="#17A086" fill-rule="evenodd" clip-rule="evenodd"/><path d=" M 8.08 3.25 L 47.88 3.25 C 49.76 3.25 51.29 4.78 51.29 6.66 L 51.29 46.46 C 51.29 48.33 49.76 49.87 47.88 49.87 L 8.08 49.87 C 6.21 49.87 4.67 48.34 4.67 46.46 L 4.67 6.66 C 4.67 4.79 6.21 3.25 8.08 3.25 Z" fill="#1DD9B0" fill-rule="evenodd" clip-rule="evenodd"/><path d=" M 27.98 3.25 L 47.88 3.25 C 49.76 3.25 51.29 4.78 51.29 6.66 L 51.29 46.46 C 51.29 48.34 49.76 49.87 47.88 49.87 L 27.98 49.87 L 27.98 3.25 Z" fill="#19BD9B" fill-rule="evenodd" clip-rule="evenodd"/><g><path d=" M 46.87 42.96 C 48.34 42.96 49.53 44.15 49.53 45.62 C 49.53 47.09 48.34 48.28 46.87 48.28 C 45.4 48.28 44.21 47.09 44.21 45.62 C 44.21 44.15 45.4 42.96 46.87 42.96 Z" fill="#69EBCC" fill-rule="evenodd" clip-rule="evenodd"/><path d=" M 46.87 42.79 C 48.34 42.79 49.53 43.98 49.53 45.45 C 49.53 46.92 48.34 48.11 46.87 48.11 C 45.4 48.11 44.21 46.92 44.21 45.45 C 44.21 43.98 45.4 42.79 46.87 42.79 Z" fill="#17A086" fill-rule="evenodd" clip-rule="evenodd"/><path d=" M 46.87 43.87 C 47.89 43.87 48.71 44.7 48.71 45.71 C 48.71 46.73 47.88 47.55 46.87 47.55 C 45.85 47.55 45.03 46.72 45.03 45.71 C 45.03 44.7 45.85 43.87 46.87 43.87 Z" fill="#19BD9B" fill-rule="evenodd" clip-rule="evenodd"/></g><path d=" M 51.29 45.85 L 51.29 46.46 C 51.29 48.34 49.76 49.87 47.88 49.87 L 8.08 49.87 C 6.21 49.87 4.67 48.34 4.67 46.46 L 4.67 45.85 C 4.67 47.72 6.2 49.26 8.08 49.26 L 47.88 49.26 C 49.75 49.26 51.29 47.72 51.29 45.85 Z" fill="#69EBCC" fill-rule="evenodd" clip-rule="evenodd"/><path d=" M 55.92 51.47 L 55.92 51.82 C 55.92 54.07 54.08 55.91 51.83 55.91 L 4.09 55.91 C 1.84 55.92 0 54.08 0 51.83 L 0 51.48 C 0 53.73 1.84 55.57 4.09 55.57 L 51.83 55.57 C 54.08 55.56 55.92 53.72 55.92 51.47 Z" fill="#FFFFFF" fill-rule="evenodd" clip-rule="evenodd"/><g><path d=" M 9.41 5.1 C 10.88 5.1 12.07 6.29 12.07 7.76 C 12.07 9.23 10.88 10.42 9.41 10.42 C 7.94 10.42 6.75 9.23 6.75 7.76 C 6.75 6.29 7.94 5.1 9.41 5.1 Z" fill="#69EBCC" fill-rule="evenodd" clip-rule="evenodd"/><path d=" M 9.41 4.92 C 10.88 4.92 12.07 6.11 12.07 7.58 C 12.07 9.05 10.88 10.24 9.41 10.24 C 7.94 10.24 6.75 9.05 6.75 7.58 C 6.75 6.11 7.94 4.92 9.41 4.92 Z" fill="#17A086" fill-rule="evenodd" clip-rule="evenodd"/><circle cx="9.41" cy="7.85" r="1.84" fill="#19BD9B" fill-rule="evenodd" clip-rule="evenodd"/></g><g><path d=" M 46.87 5.1 C 48.34 5.1 49.53 6.29 49.53 7.76 C 49.53 9.23 48.34 10.42 46.87 10.42 C 45.4 10.42 44.21 9.23 44.21 7.76 C 44.21 6.29 45.4 5.1 46.87 5.1 Z" fill="#69EBCC" fill-rule="evenodd" clip-rule="evenodd"/><path d=" M 46.87 4.92 C 48.34 4.92 49.53 6.11 49.53 7.58 C 49.53 9.05 48.34 10.24 46.87 10.24 C 45.4 10.24 44.21 9.05 44.21 7.58 C 44.21 6.11 45.4 4.92 46.87 4.92 Z" fill="#17A086" fill-rule="evenodd" clip-rule="evenodd"/><circle cx="46.87" cy="7.85" r="1.84" fill="#19BD9B" fill-rule="evenodd" clip-rule="evenodd"/></g><g><circle cx="9.41" cy="45.63" r="2.66" fill="#69EBCC" fill-rule="evenodd" clip-rule="evenodd"/><path d=" M 9.41 42.79 C 10.88 42.79 12.07 43.98 12.07 45.45 C 12.07 46.92 10.88 48.11 9.41 48.11 C 7.94 48.11 6.75 46.92 6.75 45.45 C 6.75 43.98 7.94 42.79 9.41 42.79 Z" fill="#17A086" fill-rule="evenodd" clip-rule="evenodd"/><path d=" M 9.41 43.87 C 10.43 43.87 11.25 44.7 11.25 45.71 C 11.25 46.73 10.42 47.55 9.41 47.55 C 8.4 47.55 7.57 46.72 7.57 45.71 C 7.56 44.7 8.39 43.87 9.41 43.87 Z" fill="#19BD9B" fill-rule="evenodd" clip-rule="evenodd"/></g></g><path d=" M 51.29 29.06 L 51.29 46.46 C 51.29 48.32 49.74 49.87 47.88 49.87 L 29.44 49.87 L 14.68 33.6 L 21.35 17.8 L 22.9 19.33 L 36.68 11.71 L 51.29 29.06 Z" fill-rule="evenodd" clip-rule="evenodd" opacity="0.1"/><g><path d=" M 33.84 39.23 C 35.49 39.96 36.91 40.18 36.93 37.23 L 36.93 14.06 C 36.93 12.2 36.08 11.77 34.57 12.43 L 22.96 19.7 C 22.45 20.02 22.19 20.42 22.19 21.14 L 22.19 31.09 C 22.19 31.63 22.43 32.1 22.97 32.43 L 33.84 39.23 L 33.84 39.23 Z M 37.78 21.1 C 39.69 21.86 41.05 23.73 41.05 25.92 C 41.05 28.1 39.7 29.98 37.78 30.74 L 37.78 21.1 L 37.78 21.1 Z M 20.09 17.83 L 15.62 17.83 C 14.9 17.83 14.31 18.42 14.31 19.14 L 14.31 32.69 C 14.31 33.41 14.9 34 15.62 34 L 20.09 34 C 20.81 34 21.4 33.41 21.4 32.69 L 21.4 19.15 C 21.4 18.42 20.81 17.83 20.09 17.83 Z" fill="#BEC3C7" fill-rule="evenodd" clip-rule="evenodd"/><path d=" M 33.84 38.26 C 35.49 38.99 36.91 39.21 36.93 36.26 L 36.93 13.08 C 36.93 11.22 36.08 10.79 34.57 11.45 L 22.95 18.71 C 22.44 19.03 22.18 19.44 22.18 20.15 L 22.18 30.11 C 22.18 30.65 22.42 31.11 22.96 31.45 L 33.84 38.26 L 33.84 38.26 Z M 37.78 20.12 C 39.69 20.88 41.05 22.75 41.05 24.94 C 41.05 27.13 39.7 29 37.78 29.76 L 37.78 20.12 L 37.78 20.12 Z M 20.09 16.86 L 15.62 16.86 C 14.9 16.86 14.31 17.45 14.31 18.17 L 14.31 31.72 C 14.31 32.44 14.9 33.03 15.62 33.03 L 20.09 33.03 C 20.81 33.03 21.4 32.44 21.4 31.72 L 21.4 18.17 C 21.4 17.45 20.81 16.86 20.09 16.86 Z" fill="#E6E6E6" fill-rule="evenodd" clip-rule="evenodd"/><path d=" M 36.94 24.68 L 36.94 13.08 C 36.94 11.22 36.09 10.79 34.58 11.45 L 22.96 18.72 C 22.45 19.04 22.19 19.45 22.19 20.16 L 22.19 24.67 L 36.94 24.67 L 36.94 24.68 Z M 41.04 24.68 L 37.78 24.68 L 37.78 20.13 C 39.62 20.86 40.94 22.61 41.04 24.68 L 41.04 24.68 Z M 21.4 24.68 L 14.31 24.68 L 14.31 18.17 C 14.31 17.45 14.9 16.86 15.62 16.86 L 20.09 16.86 C 20.81 16.86 21.4 17.45 21.4 18.17 L 21.4 24.68 Z" fill="#FFFFFF" fill-rule="evenodd" clip-rule="evenodd"/><path d=" M 33.84 38.26 C 35.49 38.99 36.91 39.21 36.93 36.26 L 36.93 35.9 C 36.9 38.86 35.49 38.64 33.84 37.9 L 22.97 31.1 C 22.44 30.77 22.19 30.31 22.19 29.78 L 22.19 30.11 C 22.19 30.65 22.43 31.11 22.97 31.45 L 33.84 38.26 L 33.84 38.26 Z M 41.05 24.77 L 41.05 24.95 C 41.05 27.14 39.7 29.01 37.78 29.77 L 37.78 29.42 C 39.65 28.67 40.98 26.88 41.05 24.77 L 41.05 24.77 Z M 14.31 31.37 L 14.31 31.72 C 14.31 32.44 14.9 33.03 15.62 33.03 L 20.09 33.03 C 20.81 33.03 21.4 32.44 21.4 31.72 L 21.4 31.37 C 21.4 32.09 20.81 32.68 20.09 32.68 L 15.62 32.68 C 14.9 32.68 14.31 32.09 14.31 31.37 Z" fill="#FFFFFF" fill-rule="evenodd" clip-rule="evenodd"/></g></g></svg>