<svg version="1.1" width="57.21" height="58.57" viewBox="0 0 57.21 58.57" xmlns="http://www.w3.org/2000/svg" xmlns:xlink="http://www.w3.org/1999/xlink" overflow="visible"><defs></defs><g><g><path d=" M 4.18 0 L 53.02 0 C 55.32 0 57.2 1.88 57.2 4.18 L 57.2 54.38 C 57.2 56.68 55.32 58.56 53.02 58.56 L 4.18 58.56 C 1.88 58.56 0 56.68 0 54.38 L 0 4.18 C 0 1.88 1.88 0 4.18 0 Z" fill-rule="evenodd" clip-rule="evenodd" opacity="0.1"/><path d=" M 4.09 1.44 L 51.83 1.44 C 54.08 1.44 55.92 3.28 55.92 5.53 L 55.92 53.27 C 55.92 55.52 54.08 57.36 51.83 57.36 L 4.09 57.36 C 1.84 57.35 0 55.51 0 53.26 L 0 5.53 C 0 3.28 1.84 1.44 4.09 1.44 Z" fill="#BEC3C7" fill-rule="evenodd" clip-rule="evenodd"/><path d=" M 4.09 0 L 51.83 0 C 54.08 0 55.92 1.84 55.92 4.09 L 55.92 51.83 C 55.92 54.08 54.08 55.92 51.83 55.92 L 4.09 55.92 C 1.84 55.92 0 54.08 0 51.83 L 0 4.09 C 0 1.84 1.84 0 4.09 0 Z" fill="#ECF0F1" fill-rule="evenodd" clip-rule="evenodd"/><path d=" M 4.09 0 L 51.83 0 C 54.08 0 55.92 1.84 55.92 4.09 L 55.92 27.96 L 0 27.96 L 0 4.09 C 0 1.84 1.84 0 4.09 0 Z" fill="#FFFFFF" fill-rule="evenodd" clip-rule="evenodd"/><path d=" M 8.13 3.25 L 48.54 3.25 C 50.44 3.25 52 4.81 52 6.71 L 52 48.87 C 52 50.78 50.44 52.33 48.54 52.33 L 8.13 52.33 C 6.23 52.33 4.67 50.77 4.67 48.87 L 4.67 6.72 C 4.67 4.81 6.23 3.25 8.13 3.25 Z" fill-rule="evenodd" clip-rule="evenodd" opacity="0.2"/><path d=" M 8.08 4.89 L 47.88 4.89 C 49.76 4.89 51.29 6.42 51.29 8.3 L 51.29 48.09 C 51.29 49.97 49.76 51.5 47.88 51.5 L 8.08 51.5 C 6.21 51.5 4.67 49.97 4.67 48.09 L 4.67 8.3 C 4.67 6.42 6.21 4.89 8.08 4.89 Z" fill="#17A086" fill-rule="evenodd" clip-rule="evenodd"/><path d=" M 8.08 3.25 L 47.88 3.25 C 49.76 3.25 51.29 4.78 51.29 6.66 L 51.29 46.46 C 51.29 48.33 49.76 49.87 47.88 49.87 L 8.08 49.87 C 6.21 49.87 4.67 48.34 4.67 46.46 L 4.67 6.66 C 4.67 4.79 6.21 3.25 8.08 3.25 Z" fill="#1DD9B0" fill-rule="evenodd" clip-rule="evenodd"/><path d=" M 27.98 3.25 L 47.88 3.25 C 49.76 3.25 51.29 4.78 51.29 6.66 L 51.29 46.46 C 51.29 48.34 49.76 49.87 47.88 49.87 L 27.98 49.87 L 27.98 3.25 Z" fill="#19BD9B" fill-rule="evenodd" clip-rule="evenodd"/><g><path d=" M 46.87 42.96 C 48.34 42.96 49.53 44.15 49.53 45.62 C 49.53 47.09 48.34 48.28 46.87 48.28 C 45.4 48.28 44.21 47.09 44.21 45.62 C 44.21 44.15 45.4 42.96 46.87 42.96 Z" fill="#69EBCC" fill-rule="evenodd" clip-rule="evenodd"/><path d=" M 46.87 42.79 C 48.34 42.79 49.53 43.98 49.53 45.45 C 49.53 46.92 48.34 48.11 46.87 48.11 C 45.4 48.11 44.21 46.92 44.21 45.45 C 44.21 43.98 45.4 42.79 46.87 42.79 Z" fill="#17A086" fill-rule="evenodd" clip-rule="evenodd"/><path d=" M 46.87 43.87 C 47.89 43.87 48.71 44.7 48.71 45.71 C 48.71 46.73 47.88 47.55 46.87 47.55 C 45.85 47.55 45.03 46.72 45.03 45.71 C 45.03 44.7 45.85 43.87 46.87 43.87 Z" fill="#19BD9B" fill-rule="evenodd" clip-rule="evenodd"/></g><path d=" M 51.29 45.85 L 51.29 46.46 C 51.29 48.34 49.76 49.87 47.88 49.87 L 8.08 49.87 C 6.21 49.87 4.67 48.34 4.67 46.46 L 4.67 45.85 C 4.67 47.72 6.2 49.26 8.08 49.26 L 47.88 49.26 C 49.75 49.26 51.29 47.72 51.29 45.85 Z" fill="#69EBCC" fill-rule="evenodd" clip-rule="evenodd"/><path d=" M 55.92 51.47 L 55.92 51.82 C 55.92 54.07 54.08 55.91 51.83 55.91 L 4.09 55.91 C 1.84 55.92 0 54.08 0 51.83 L 0 51.48 C 0 53.73 1.84 55.57 4.09 55.57 L 51.83 55.57 C 54.08 55.56 55.92 53.72 55.92 51.47 Z" fill="#FFFFFF" fill-rule="evenodd" clip-rule="evenodd"/><g><path d=" M 9.41 5.1 C 10.88 5.1 12.07 6.29 12.07 7.76 C 12.07 9.23 10.88 10.42 9.41 10.42 C 7.94 10.42 6.75 9.23 6.75 7.76 C 6.75 6.29 7.94 5.1 9.41 5.1 Z" fill="#69EBCC" fill-rule="evenodd" clip-rule="evenodd"/><path d=" M 9.41 4.92 C 10.88 4.92 12.07 6.11 12.07 7.58 C 12.07 9.05 10.88 10.24 9.41 10.24 C 7.94 10.24 6.75 9.05 6.75 7.58 C 6.75 6.11 7.94 4.92 9.41 4.92 Z" fill="#17A086" fill-rule="evenodd" clip-rule="evenodd"/><circle cx="9.41" cy="7.85" r="1.84" fill="#19BD9B" fill-rule="evenodd" clip-rule="evenodd"/></g><g><path d=" M 46.87 5.1 C 48.34 5.1 49.53 6.29 49.53 7.76 C 49.53 9.23 48.34 10.42 46.87 10.42 C 45.4 10.42 44.21 9.23 44.21 7.76 C 44.21 6.29 45.4 5.1 46.87 5.1 Z" fill="#69EBCC" fill-rule="evenodd" clip-rule="evenodd"/><path d=" M 46.87 4.92 C 48.34 4.92 49.53 6.11 49.53 7.58 C 49.53 9.05 48.34 10.24 46.87 10.24 C 45.4 10.24 44.21 9.05 44.21 7.58 C 44.21 6.11 45.4 4.92 46.87 4.92 Z" fill="#17A086" fill-rule="evenodd" clip-rule="evenodd"/><circle cx="46.87" cy="7.85" r="1.84" fill="#19BD9B" fill-rule="evenodd" clip-rule="evenodd"/></g><g><circle cx="9.41" cy="45.63" r="2.66" fill="#69EBCC" fill-rule="evenodd" clip-rule="evenodd"/><path d=" M 9.41 42.79 C 10.88 42.79 12.07 43.98 12.07 45.45 C 12.07 46.92 10.88 48.11 9.41 48.11 C 7.94 48.11 6.75 46.92 6.75 45.45 C 6.75 43.98 7.94 42.79 9.41 42.79 Z" fill="#17A086" fill-rule="evenodd" clip-rule="evenodd"/><path d=" M 9.41 43.87 C 10.43 43.87 11.25 44.7 11.25 45.71 C 11.25 46.73 10.42 47.55 9.41 47.55 C 8.4 47.55 7.57 46.72 7.57 45.71 C 7.56 44.7 8.39 43.87 9.41 43.87 Z" fill="#19BD9B" fill-rule="evenodd" clip-rule="evenodd"/></g></g><path d=" M 51.29 29.06 L 51.29 46.46 C 51.29 48.32 49.74 49.87 47.88 49.87 L 29.44 49.87 L 14.68 33.6 L 21.35 17.8 L 22.9 19.33 L 36.68 11.71 L 51.29 29.06 Z" fill-rule="evenodd" clip-rule="evenodd" opacity="0.1"/><g><path d=" M 33.84 39.23 C 35.49 39.96 36.91 40.18 36.93 37.23 L 36.93 14.06 C 36.93 12.2 36.08 11.77 34.57 12.43 L 22.96 19.7 C 22.45 20.02 22.19 20.42 22.19 21.14 L 22.19 31.09 C 22.19 31.63 22.43 32.1 22.97 32.43 L 33.84 39.23 L 33.84 39.23 Z M 20.09 17.83 L 15.62 17.83 C 14.9 17.83 14.31 18.42 14.31 19.14 L 14.31 32.69 C 14.31 33.41 14.9 34 15.62 34 L 20.09 34 C 20.81 34 21.4 33.41 21.4 32.69 L 21.4 19.15 C 21.4 18.42 20.81 17.83 20.09 17.83 Z" fill="#BEC3C7" fill-rule="evenodd" clip-rule="evenodd"/><path d=" M 33.84 38.26 C 35.49 38.99 36.91 39.21 36.93 36.26 L 36.93 13.08 C 36.93 11.22 36.08 10.79 34.57 11.45 L 22.95 18.71 C 22.44 19.03 22.18 19.44 22.18 20.15 L 22.18 30.11 C 22.18 30.65 22.42 31.11 22.96 31.45 L 33.84 38.26 L 33.84 38.26 Z M 20.09 16.86 L 15.62 16.86 C 14.9 16.86 14.31 17.45 14.31 18.17 L 14.31 31.72 C 14.31 32.44 14.9 33.03 15.62 33.03 L 20.09 33.03 C 20.81 33.03 21.4 32.44 21.4 31.72 L 21.4 18.17 C 21.4 17.45 20.81 16.86 20.09 16.86 Z" fill="#E6E6E6" fill-rule="evenodd" clip-rule="evenodd"/></g><g><path d=" M 39.64 21.32 L 41.77 23.51 L 43.9 21.32 C 44.05 21.16 44.3 21.16 44.46 21.31 L 45.69 22.51 C 45.85 22.66 45.85 22.91 45.7 23.07 L 43.52 25.31 L 45.7 27.55 C 45.85 27.71 45.85 27.96 45.69 28.11 L 44.46 29.31 C 44.3 29.46 44.05 29.46 43.9 29.3 L 41.77 27.11 L 39.64 29.3 C 39.49 29.46 39.24 29.46 39.08 29.31 L 37.85 28.11 C 37.69 27.96 37.69 27.71 37.84 27.55 L 40.02 25.31 L 37.84 23.07 C 37.69 22.91 37.69 22.66 37.85 22.51 L 39.08 21.31 C 39.24 21.16 39.49 21.16 39.64 21.32 Z" fill="#BEC3C7" fill-rule="evenodd" clip-rule="evenodd"/><rect x="37.73" y="27.2" width="0.57" height="0.61" fill="#BEC3C7" fill-rule="evenodd" clip-rule="evenodd"/><rect x="45.23" y="27.2" width="0.57" height="0.61" fill="#BEC3C7" fill-rule="evenodd" clip-rule="evenodd"/><path d=" M 39.64 20.71 L 41.77 22.9 L 43.9 20.71 C 44.05 20.55 44.3 20.55 44.46 20.7 L 45.69 21.9 C 45.85 22.05 45.85 22.3 45.7 22.46 L 43.52 24.7 L 45.7 26.94 C 45.85 27.1 45.85 27.35 45.69 27.5 L 44.46 28.7 C 44.3 28.85 44.05 28.85 43.9 28.69 L 41.77 26.5 L 39.64 28.69 C 39.49 28.85 39.24 28.85 39.08 28.7 L 37.85 27.5 C 37.69 27.35 37.69 27.1 37.84 26.94 L 40.02 24.7 L 37.84 22.46 C 37.69 22.3 37.69 22.05 37.85 21.9 L 39.08 20.7 C 39.24 20.55 39.49 20.56 39.64 20.71 Z" fill="#E6E6E6" fill-rule="evenodd" clip-rule="evenodd"/><rect x="45.23" y="22.18" width="0.57" height="0.61" fill="#BEC3C7" fill-rule="evenodd" clip-rule="evenodd"/><rect x="37.73" y="22.18" width="0.57" height="0.61" fill="#BEC3C7" fill-rule="evenodd" clip-rule="evenodd"/><path d=" M 39.64 20.71 L 41.77 22.9 L 43.9 20.71 C 44.05 20.55 44.3 20.55 44.46 20.7 L 45.69 21.9 C 45.85 22.05 45.85 22.3 45.7 22.46 L 43.53 24.7 L 40.03 24.7 L 37.86 22.46 C 37.71 22.3 37.71 22.05 37.87 21.9 L 39.1 20.7 C 39.24 20.55 39.49 20.56 39.64 20.71 Z" fill="#FFFFFF" fill-rule="evenodd" clip-rule="evenodd"/><path d=" M 45.8 22.09 C 45.83 22.22 45.79 22.35 45.7 22.45 L 43.61 24.6 L 43.52 24.51 L 45.7 22.27 C 45.75 22.23 45.78 22.16 45.8 22.09 L 45.8 22.09 Z M 45.8 27.12 C 45.83 27.25 45.79 27.39 45.69 27.49 L 44.46 28.69 C 44.3 28.84 44.05 28.84 43.9 28.68 L 41.77 26.49 L 39.64 28.68 C 39.49 28.84 39.24 28.84 39.08 28.69 L 37.85 27.49 C 37.75 27.39 37.71 27.25 37.74 27.12 C 37.76 27.19 37.79 27.26 37.85 27.32 L 39.08 28.52 C 39.24 28.67 39.49 28.67 39.64 28.51 L 41.77 26.32 L 43.9 28.51 C 44.05 28.67 44.3 28.67 44.46 28.52 L 45.69 27.32 C 45.74 27.26 45.78 27.19 45.8 27.12 L 45.8 27.12 Z M 39.94 24.61 L 37.85 22.46 C 37.75 22.36 37.72 22.22 37.75 22.1 C 37.77 22.17 37.8 22.23 37.85 22.29 L 40.03 24.53 L 39.94 24.61 Z" fill="#FFFFFF" fill-rule="evenodd" clip-rule="evenodd"/></g></g></svg>