<svg version="1.1" width="1042.34" height="526.61" viewBox="0 0 1042.34 526.61" xmlns="http://www.w3.org/2000/svg" xmlns:xlink="http://www.w3.org/1999/xlink" overflow="visible"><defs></defs><g><g><path d=" M 6.31 0 L 1036.04 0 C 1039.51 0 1042.35 2.92 1042.35 6.48 L 1042.35 520.13 C 1042.35 523.69 1039.51 526.61 1036.04 526.61 L 6.31 526.61 C 2.85 526.61 0 523.69 0 520.13 L 0 6.48 C 0 2.92 2.84 0 6.31 0 Z" fill-rule="evenodd" clip-rule="evenodd" opacity="0.1"/><path d=" M 6.17 2.22 L 1034.23 2.22 C 1037.62 2.22 1040.4 5.07 1040.4 8.55 L 1040.4 518.38 C 1040.4 521.86 1037.62 524.71 1034.23 524.71 L 6.17 524.71 C 2.78 524.71 0 521.86 0 518.38 L 0 8.56 C 0 5.07 2.77 2.22 6.17 2.22 Z" fill="#BDC2C6" fill-rule="evenodd" clip-rule="evenodd"/><path d=" M 6.17 0 L 1034.23 0 C 1037.62 0 1040.4 2.86 1040.4 6.33 L 1040.4 516.16 C 1040.4 519.64 1037.62 522.49 1034.23 522.49 L 6.17 522.49 C 2.78 522.49 0 519.64 0 516.16 L 0 6.33 C 0 2.85 2.77 0 6.17 0 Z" fill="#EBEFF0" fill-rule="evenodd" clip-rule="evenodd"/><path d=" M 6.17 0 L 1034.23 0 C 1037.62 0 1040.4 2.86 1040.4 6.33 L 1040.4 263.3 L 0 263.3 L 0 6.33 C 0 2.85 2.77 0 6.17 0 Z" fill="#FFFFFF" fill-rule="evenodd" clip-rule="evenodd"/><path d=" M 21.3 18.14 L 1020.26 18.14 C 1023.05 18.14 1025.33 20.43 1025.33 23.21 L 1025.33 499.02 C 1025.33 501.8 1023.04 504.09 1020.26 504.09 L 21.3 504.09 C 18.52 504.09 16.23 501.81 16.23 499.02 L 16.23 23.21 C 16.23 20.42 18.51 18.14 21.3 18.14 Z" fill-rule="evenodd" clip-rule="evenodd" opacity="0.2"/><path d=" M 21.23 20.54 L 1019.29 20.54 C 1022.04 20.54 1024.28 22.79 1024.28 25.53 L 1024.28 497.88 C 1024.28 500.62 1022.03 502.88 1019.29 502.88 L 21.23 502.88 C 18.49 502.88 16.23 500.63 16.23 497.88 L 16.23 25.53 C 16.23 22.78 18.48 20.54 21.23 20.54 Z" fill="#F0C282" fill-rule="evenodd" clip-rule="evenodd"/><path d=" M 21.23 18.14 L 1019.29 18.14 C 1022.04 18.14 1024.28 20.39 1024.28 23.13 L 1024.28 495.48 C 1024.28 498.22 1022.03 500.48 1019.29 500.48 L 21.23 500.48 C 18.49 500.48 16.23 498.23 16.23 495.48 L 16.23 23.14 C 16.23 20.39 18.48 18.14 21.23 18.14 Z" fill="#F4E2A8" fill-rule="evenodd" clip-rule="evenodd"/><path d=" M 1024.28 494.6 L 1024.28 495.49 C 1024.28 498.23 1022.03 500.49 1019.29 500.49 L 21.23 500.49 C 18.49 500.49 16.24 498.24 16.24 495.49 L 16.24 494.6 C 16.24 497.35 18.49 499.59 21.23 499.59 L 1019.29 499.59 C 1022.03 499.59 1024.28 497.35 1024.28 494.6 Z" fill="#F9EDCB" fill-rule="evenodd" clip-rule="evenodd"/><path d=" M 1040.4 515.62 L 1040.4 516.16 C 1040.4 519.64 1037.62 522.49 1034.23 522.49 L 6.17 522.49 C 2.78 522.49 0 519.64 0 516.16 L 0 515.62 C 0 519.1 2.77 521.95 6.17 521.95 L 1034.23 521.95 C 1037.62 521.95 1040.4 519.1 1040.4 515.62 Z" fill="#FFFFFF" fill-rule="evenodd" clip-rule="evenodd"/><g><path d=" M 21.23 507.63 L 1019.29 507.63 C 1022.04 507.63 1024.28 504.76 1024.28 501.28 L 1024.28 437.66 L 16.23 437.66 L 16.23 501.28 C 16.23 504.77 18.48 507.63 21.23 507.63 Z" fill-rule="evenodd" clip-rule="evenodd" opacity="0.1"/><path d=" M 21.23 502.88 L 1019.29 502.88 C 1022.04 502.88 1024.28 500.21 1024.28 496.96 L 1024.28 437.65 L 16.23 437.65 L 16.23 496.96 C 16.23 500.22 18.48 502.88 21.23 502.88 Z" fill="#902920" fill-rule="evenodd" clip-rule="evenodd"/><path d=" M 21.23 501.22 L 1019.29 501.22 C 1022.04 501.22 1024.28 498.54 1024.28 495.3 L 1024.28 437.66 L 16.23 437.66 L 16.23 495.3 C 16.23 498.55 18.48 501.22 21.23 501.22 Z" fill="#E74C3D" fill-rule="evenodd" clip-rule="evenodd"/><path d=" M 21.23 501.22 L 1019.29 501.22 C 1022.04 501.22 1024.28 498.54 1024.28 495.3 L 1024.28 466.48 L 16.23 466.48 L 16.23 495.3 C 16.23 498.55 18.48 501.22 21.23 501.22 Z" fill="#C0392D" fill-rule="evenodd" clip-rule="evenodd"/><g><path d=" M 23.54 440.81 C 26.02 440.81 28.03 442.82 28.03 445.3 C 28.03 447.78 26.02 449.79 23.54 449.79 C 21.06 449.79 19.05 447.78 19.05 445.3 C 19.04 442.82 21.05 440.81 23.54 440.81 Z" fill="#FF8278" fill-rule="evenodd" clip-rule="evenodd"/><path d=" M 23.54 440.51 C 26.02 440.51 28.03 442.52 28.03 445 C 28.03 447.48 26.02 449.49 23.54 449.49 C 21.06 449.49 19.05 447.48 19.05 445 C 19.04 442.52 21.05 440.51 23.54 440.51 Z" fill="#902920" fill-rule="evenodd" clip-rule="evenodd"/><path d=" M 23.54 442.33 C 25.26 442.33 26.65 443.72 26.65 445.44 C 26.65 447.16 25.26 448.55 23.54 448.55 C 21.82 448.55 20.43 447.16 20.43 445.44 C 20.42 443.73 21.82 442.33 23.54 442.33 Z" fill="#C0392D" fill-rule="evenodd" clip-rule="evenodd"/></g><g><path d=" M 23.54 489.47 C 26.02 489.47 28.03 491.48 28.03 493.96 C 28.03 496.44 26.02 498.45 23.54 498.45 C 21.06 498.45 19.05 496.44 19.05 493.96 C 19.04 491.48 21.05 489.47 23.54 489.47 Z" fill="#FF8278" fill-rule="evenodd" clip-rule="evenodd"/><path d=" M 23.54 489.17 C 26.02 489.17 28.03 491.18 28.03 493.66 C 28.03 496.14 26.02 498.15 23.54 498.15 C 21.06 498.15 19.05 496.14 19.05 493.66 C 19.04 491.19 21.05 489.17 23.54 489.17 Z" fill="#902920" fill-rule="evenodd" clip-rule="evenodd"/><path d=" M 23.54 491 C 25.26 491 26.65 492.39 26.65 494.11 C 26.65 495.83 25.26 497.22 23.54 497.22 C 21.82 497.22 20.43 495.83 20.43 494.11 C 20.42 492.39 21.82 491 23.54 491 Z" fill="#C0392D" fill-rule="evenodd" clip-rule="evenodd"/></g><g><path d=" M 1018.21 440.81 C 1020.69 440.81 1022.7 442.82 1022.7 445.3 C 1022.7 447.78 1020.69 449.79 1018.21 449.79 C 1015.73 449.79 1013.72 447.78 1013.72 445.3 C 1013.72 442.82 1015.73 440.81 1018.21 440.81 Z" fill="#FF8278" fill-rule="evenodd" clip-rule="evenodd"/><path d=" M 1018.21 440.51 C 1020.69 440.51 1022.7 442.52 1022.7 445 C 1022.7 447.48 1020.69 449.49 1018.21 449.49 C 1015.73 449.49 1013.72 447.48 1013.72 445 C 1013.72 442.52 1015.73 440.51 1018.21 440.51 Z" fill="#902920" fill-rule="evenodd" clip-rule="evenodd"/><path d=" M 1018.21 442.33 C 1019.93 442.33 1021.32 443.72 1021.32 445.44 C 1021.32 447.16 1019.93 448.55 1018.21 448.55 C 1016.49 448.55 1015.1 447.16 1015.1 445.44 C 1015.1 443.73 1016.49 442.33 1018.21 442.33 Z" fill="#C0392D" fill-rule="evenodd" clip-rule="evenodd"/></g><g><path d=" M 1018.21 489.47 C 1020.69 489.47 1022.7 491.48 1022.7 493.96 C 1022.7 496.44 1020.69 498.45 1018.21 498.45 C 1015.73 498.45 1013.72 496.44 1013.72 493.96 C 1013.72 491.48 1015.73 489.47 1018.21 489.47 Z" fill="#FF8278" fill-rule="evenodd" clip-rule="evenodd"/><path d=" M 1018.21 489.17 C 1020.69 489.17 1022.7 491.18 1022.7 493.66 C 1022.7 496.14 1020.69 498.15 1018.21 498.15 C 1015.73 498.15 1013.72 496.14 1013.72 493.66 C 1013.72 491.19 1015.73 489.17 1018.21 489.17 Z" fill="#902920" fill-rule="evenodd" clip-rule="evenodd"/><path d=" M 1018.21 491 C 1019.93 491 1021.32 492.39 1021.32 494.11 C 1021.32 495.83 1019.93 497.22 1018.21 497.22 C 1016.49 497.22 1015.1 495.83 1015.1 494.11 C 1015.1 492.39 1016.49 491 1018.21 491 Z" fill="#C0392D" fill-rule="evenodd" clip-rule="evenodd"/></g><path d=" M 21.23 501.22 L 1019.29 501.22 C 1022.04 501.22 1024.28 498.54 1024.28 495.3 L 1024.28 494.65 C 1024.28 497.9 1022.03 500.57 1019.29 500.57 L 21.23 500.57 C 18.48 500.57 16.23 497.91 16.23 494.65 L 16.23 495.3 C 16.23 498.55 18.48 501.22 21.23 501.22 Z" fill="#FF8278" fill-rule="evenodd" clip-rule="evenodd"/></g></g><g><path d=" M 36.65 100.67 L 1003.86 100.67 C 1006.53 100.67 1008.72 102.93 1008.72 105.65 L 1008.72 418.21 C 1008.72 420.94 1006.52 423.2 1003.86 423.2 L 36.65 423.2 C 33.99 423.2 31.79 420.95 31.79 418.21 L 31.79 105.65 C 31.8 102.91 33.98 100.67 36.65 100.67 Z" fill="#F9EDCB" fill-rule="evenodd" clip-rule="evenodd"/><path d=" M 36.65 96.31 L 1003.86 96.31 C 1006.53 96.31 1008.72 98.59 1008.72 101.34 L 1008.72 417.5 C 1008.72 420.26 1006.52 422.53 1003.86 422.53 L 36.65 422.53 C 33.99 422.53 31.79 420.27 31.79 417.5 L 31.79 101.34 C 31.8 98.58 33.98 96.31 36.65 96.31 Z" fill="#F0C282" fill-rule="evenodd" clip-rule="evenodd"/><path d=" M 40.35 100 L 1000.17 100 C 1002.81 100 1004.96 102.26 1004.96 104.98 L 1004.96 417.54 C 1004.96 420.27 1002.79 422.53 1000.17 422.53 L 40.35 422.53 C 37.73 422.53 35.56 420.29 35.56 417.54 L 35.56 104.99 C 35.55 102.25 37.71 100 40.35 100 Z" fill="#F0D482" fill-rule="evenodd" clip-rule="evenodd"/></g><g><path d=" M 21.23 18.14 L 1019.29 18.14 C 1022.04 18.14 1024.28 21.01 1024.28 24.49 L 1024.28 88.11 L 16.23 88.11 L 16.23 24.5 C 16.23 21 18.48 18.14 21.23 18.14 Z" fill-rule="evenodd" clip-rule="evenodd" opacity="0.1"/><path d=" M 21.23 20.4 L 1019.29 20.4 C 1022.04 20.4 1024.28 23.07 1024.28 26.32 L 1024.28 85.63 L 16.23 85.63 L 16.23 26.32 C 16.23 23.06 18.48 20.4 21.23 20.4 Z" fill="#902920" fill-rule="evenodd" clip-rule="evenodd"/><path d=" M 21.23 18.14 L 1019.29 18.14 C 1022.04 18.14 1024.28 20.82 1024.28 24.06 L 1024.28 81.71 L 16.23 81.71 L 16.23 24.07 C 16.23 20.81 18.48 18.14 21.23 18.14 Z" fill="#C0392D" fill-rule="evenodd" clip-rule="evenodd"/><path d=" M 21.23 18.14 L 1019.29 18.14 C 1022.04 18.14 1024.28 20.82 1024.28 24.06 L 1024.28 52.88 L 16.23 52.88 L 16.23 24.07 C 16.23 20.81 18.48 18.14 21.23 18.14 Z" fill="#E74C3D" fill-rule="evenodd" clip-rule="evenodd"/><rect x="16.23" y="80.52" width="1008.05" height="1.2" fill="#FF8278" fill-rule="evenodd" clip-rule="evenodd"/><g><path d=" M 23.54 21.2 C 26.02 21.2 28.03 23.21 28.03 25.69 C 28.03 28.17 26.02 30.18 23.54 30.18 C 21.06 30.18 19.05 28.17 19.05 25.69 C 19.05 23.21 21.05 21.2 23.54 21.2 Z" fill="#FF8278" fill-rule="evenodd" clip-rule="evenodd"/><path d=" M 23.54 20.9 C 26.02 20.9 28.03 22.91 28.03 25.39 C 28.03 27.87 26.02 29.88 23.54 29.88 C 21.06 29.88 19.05 27.87 19.05 25.39 C 19.04 22.92 21.05 20.9 23.54 20.9 Z" fill="#902920" fill-rule="evenodd" clip-rule="evenodd"/><circle cx="23.54" cy="25.84" r="3.11" fill="#C0392D" fill-rule="evenodd" clip-rule="evenodd"/></g><g><path d=" M 23.54 69.87 C 26.02 69.87 28.03 71.88 28.03 74.36 C 28.03 76.84 26.02 78.85 23.54 78.85 C 21.06 78.85 19.05 76.84 19.05 74.36 C 19.04 71.88 21.05 69.87 23.54 69.87 Z" fill="#FF8278" fill-rule="evenodd" clip-rule="evenodd"/><path d=" M 23.54 69.57 C 26.02 69.57 28.03 71.58 28.03 74.07 C 28.03 76.55 26.02 78.56 23.54 78.56 C 21.06 78.56 19.05 76.55 19.05 74.07 C 19.04 71.58 21.05 69.57 23.54 69.57 Z" fill="#902920" fill-rule="evenodd" clip-rule="evenodd"/><path d=" M 23.54 71.4 C 25.26 71.4 26.65 72.79 26.65 74.51 C 26.65 76.23 25.26 77.62 23.54 77.62 C 21.82 77.62 20.43 76.23 20.43 74.51 C 20.42 72.79 21.82 71.4 23.54 71.4 Z" fill="#C0392D" fill-rule="evenodd" clip-rule="evenodd"/></g><g><path d=" M 1018.21 21.2 C 1020.69 21.2 1022.7 23.21 1022.7 25.69 C 1022.7 28.17 1020.69 30.18 1018.21 30.18 C 1015.73 30.18 1013.72 28.17 1013.72 25.69 C 1013.72 23.21 1015.73 21.2 1018.21 21.2 Z" fill="#FF8278" fill-rule="evenodd" clip-rule="evenodd"/><path d=" M 1018.21 20.9 C 1020.69 20.9 1022.7 22.91 1022.7 25.39 C 1022.7 27.87 1020.69 29.88 1018.21 29.88 C 1015.73 29.88 1013.72 27.87 1013.72 25.39 C 1013.72 22.92 1015.73 20.9 1018.21 20.9 Z" fill="#902920" fill-rule="evenodd" clip-rule="evenodd"/><path d=" M 1018.21 22.73 C 1019.93 22.73 1021.32 24.12 1021.32 25.84 C 1021.32 27.56 1019.93 28.95 1018.21 28.95 C 1016.49 28.95 1015.1 27.56 1015.1 25.84 C 1015.1 24.12 1016.49 22.73 1018.21 22.73 Z" fill="#C0392D" fill-rule="evenodd" clip-rule="evenodd"/></g><g><path d=" M 1018.21 69.87 C 1020.69 69.87 1022.7 71.88 1022.7 74.36 C 1022.7 76.84 1020.69 78.85 1018.21 78.85 C 1015.73 78.85 1013.72 76.84 1013.72 74.36 C 1013.72 71.88 1015.73 69.87 1018.21 69.87 Z" fill="#FF8278" fill-rule="evenodd" clip-rule="evenodd"/><path d=" M 1018.21 69.57 C 1020.69 69.57 1022.7 71.58 1022.7 74.07 C 1022.7 76.55 1020.69 78.56 1018.21 78.56 C 1015.73 78.56 1013.72 76.55 1013.72 74.07 C 1013.72 71.58 1015.73 69.57 1018.21 69.57 Z" fill="#902920" fill-rule="evenodd" clip-rule="evenodd"/><path d=" M 1018.21 71.4 C 1019.93 71.4 1021.32 72.79 1021.32 74.51 C 1021.32 76.23 1019.93 77.62 1018.21 77.62 C 1016.49 77.62 1015.1 76.23 1015.1 74.51 C 1015.1 72.79 1016.49 71.4 1018.21 71.4 Z" fill="#C0392D" fill-rule="evenodd" clip-rule="evenodd"/></g></g></g></svg>